<svg xmlns="http://www.w3.org/2000/svg" xmlns:xlink="http://www.w3.org/1999/xlink" width="600" height="400" viewBox="0 0 2400 1600">
<defs>
  <clipPath id="clip190">
    <rect x="0" y="0" width="2400" height="1600"></rect>
  </clipPath>
</defs>
<path clip-path="url(#clip190)" d="M0 1600 L2400 1600 L2400 0 L0 0  Z" fill="#ffffff" fill-rule="evenodd" fill-opacity="1"></path>
<defs>
  <clipPath id="clip191">
    <rect x="480" y="0" width="1681" height="1600"></rect>
  </clipPath>
</defs>
<path clip-path="url(#clip190)" d="M202.714 1423.18 L2352.76 1423.18 L2352.76 123.472 L202.714 123.472  Z" fill="#ffffff" fill-rule="evenodd" fill-opacity="1"></path>
<defs>
  <clipPath id="clip192">
    <rect x="202" y="123" width="2151" height="1301"></rect>
  </clipPath>
</defs>
<polyline clip-path="url(#clip192)" style="stroke:#000000; stroke-linecap:round; stroke-linejoin:round; stroke-width:2; stroke-opacity:0.1; fill:none" points="202.714,1423.18 202.714,123.472 "></polyline>
<polyline clip-path="url(#clip192)" style="stroke:#000000; stroke-linecap:round; stroke-linejoin:round; stroke-width:2; stroke-opacity:0.1; fill:none" points="740.224,1423.18 740.224,123.472 "></polyline>
<polyline clip-path="url(#clip192)" style="stroke:#000000; stroke-linecap:round; stroke-linejoin:round; stroke-width:2; stroke-opacity:0.1; fill:none" points="1277.73,1423.18 1277.73,123.472 "></polyline>
<polyline clip-path="url(#clip192)" style="stroke:#000000; stroke-linecap:round; stroke-linejoin:round; stroke-width:2; stroke-opacity:0.1; fill:none" points="1815.25,1423.18 1815.25,123.472 "></polyline>
<polyline clip-path="url(#clip192)" style="stroke:#000000; stroke-linecap:round; stroke-linejoin:round; stroke-width:2; stroke-opacity:0.1; fill:none" points="2352.76,1423.18 2352.76,123.472 "></polyline>
<polyline clip-path="url(#clip192)" style="stroke:#000000; stroke-linecap:round; stroke-linejoin:round; stroke-width:2; stroke-opacity:0.1; fill:none" points="202.714,1257.58 2352.76,1257.58 "></polyline>
<polyline clip-path="url(#clip192)" style="stroke:#000000; stroke-linecap:round; stroke-linejoin:round; stroke-width:2; stroke-opacity:0.1; fill:none" points="202.714,1085.83 2352.76,1085.83 "></polyline>
<polyline clip-path="url(#clip192)" style="stroke:#000000; stroke-linecap:round; stroke-linejoin:round; stroke-width:2; stroke-opacity:0.1; fill:none" points="202.714,914.081 2352.76,914.081 "></polyline>
<polyline clip-path="url(#clip192)" style="stroke:#000000; stroke-linecap:round; stroke-linejoin:round; stroke-width:2; stroke-opacity:0.1; fill:none" points="202.714,742.33 2352.76,742.33 "></polyline>
<polyline clip-path="url(#clip192)" style="stroke:#000000; stroke-linecap:round; stroke-linejoin:round; stroke-width:2; stroke-opacity:0.1; fill:none" points="202.714,570.579 2352.76,570.579 "></polyline>
<polyline clip-path="url(#clip192)" style="stroke:#000000; stroke-linecap:round; stroke-linejoin:round; stroke-width:2; stroke-opacity:0.1; fill:none" points="202.714,398.828 2352.76,398.828 "></polyline>
<polyline clip-path="url(#clip192)" style="stroke:#000000; stroke-linecap:round; stroke-linejoin:round; stroke-width:2; stroke-opacity:0.1; fill:none" points="202.714,227.077 2352.76,227.077 "></polyline>
<polyline clip-path="url(#clip190)" style="stroke:#000000; stroke-linecap:round; stroke-linejoin:round; stroke-width:4; stroke-opacity:1; fill:none" points="202.714,1423.18 2352.76,1423.18 "></polyline>
<polyline clip-path="url(#clip190)" style="stroke:#000000; stroke-linecap:round; stroke-linejoin:round; stroke-width:4; stroke-opacity:1; fill:none" points="202.714,1423.18 202.714,1404.28 "></polyline>
<polyline clip-path="url(#clip190)" style="stroke:#000000; stroke-linecap:round; stroke-linejoin:round; stroke-width:4; stroke-opacity:1; fill:none" points="740.224,1423.18 740.224,1404.28 "></polyline>
<polyline clip-path="url(#clip190)" style="stroke:#000000; stroke-linecap:round; stroke-linejoin:round; stroke-width:4; stroke-opacity:1; fill:none" points="1277.73,1423.18 1277.73,1404.28 "></polyline>
<polyline clip-path="url(#clip190)" style="stroke:#000000; stroke-linecap:round; stroke-linejoin:round; stroke-width:4; stroke-opacity:1; fill:none" points="1815.25,1423.18 1815.25,1404.28 "></polyline>
<polyline clip-path="url(#clip190)" style="stroke:#000000; stroke-linecap:round; stroke-linejoin:round; stroke-width:4; stroke-opacity:1; fill:none" points="2352.76,1423.18 2352.76,1404.28 "></polyline>
<path clip-path="url(#clip190)" d="M180.098 1454.1 Q176.487 1454.1 174.658 1457.66 Q172.853 1461.2 172.853 1468.33 Q172.853 1475.44 174.658 1479.01 Q176.487 1482.55 180.098 1482.55 Q183.732 1482.55 185.538 1479.01 Q187.366 1475.44 187.366 1468.33 Q187.366 1461.2 185.538 1457.66 Q183.732 1454.1 180.098 1454.1 M180.098 1450.39 Q185.908 1450.39 188.964 1455 Q192.042 1459.58 192.042 1468.33 Q192.042 1477.06 188.964 1481.67 Q185.908 1486.25 180.098 1486.25 Q174.288 1486.25 171.209 1481.67 Q168.154 1477.06 168.154 1468.33 Q168.154 1459.58 171.209 1455 Q174.288 1450.39 180.098 1450.39 Z" fill="#000000" fill-rule="nonzero" fill-opacity="1"></path><path clip-path="url(#clip190)" d="M200.26 1479.7 L205.144 1479.7 L205.144 1485.58 L200.26 1485.58 L200.26 1479.7 Z" fill="#000000" fill-rule="nonzero" fill-opacity="1"></path><path clip-path="url(#clip190)" d="M225.329 1454.1 Q221.718 1454.1 219.889 1457.66 Q218.084 1461.2 218.084 1468.33 Q218.084 1475.44 219.889 1479.01 Q221.718 1482.55 225.329 1482.55 Q228.963 1482.55 230.769 1479.01 Q232.598 1475.44 232.598 1468.33 Q232.598 1461.2 230.769 1457.66 Q228.963 1454.1 225.329 1454.1 M225.329 1450.39 Q231.139 1450.39 234.195 1455 Q237.274 1459.58 237.274 1468.33 Q237.274 1477.06 234.195 1481.67 Q231.139 1486.25 225.329 1486.25 Q219.519 1486.25 216.44 1481.67 Q213.385 1477.06 213.385 1468.33 Q213.385 1459.58 216.44 1455 Q219.519 1450.39 225.329 1450.39 Z" fill="#000000" fill-rule="nonzero" fill-opacity="1"></path><path clip-path="url(#clip190)" d="M718.106 1454.1 Q714.495 1454.1 712.666 1457.66 Q710.861 1461.2 710.861 1468.33 Q710.861 1475.44 712.666 1479.01 Q714.495 1482.55 718.106 1482.55 Q721.74 1482.55 723.546 1479.01 Q725.375 1475.44 725.375 1468.33 Q725.375 1461.2 723.546 1457.66 Q721.74 1454.1 718.106 1454.1 M718.106 1450.39 Q723.916 1450.39 726.972 1455 Q730.051 1459.58 730.051 1468.33 Q730.051 1477.06 726.972 1481.67 Q723.916 1486.25 718.106 1486.25 Q712.296 1486.25 709.217 1481.67 Q706.162 1477.06 706.162 1468.33 Q706.162 1459.58 709.217 1455 Q712.296 1450.39 718.106 1450.39 Z" fill="#000000" fill-rule="nonzero" fill-opacity="1"></path><path clip-path="url(#clip190)" d="M738.268 1479.7 L743.152 1479.7 L743.152 1485.58 L738.268 1485.58 L738.268 1479.7 Z" fill="#000000" fill-rule="nonzero" fill-opacity="1"></path><path clip-path="url(#clip190)" d="M753.384 1451.02 L771.74 1451.02 L771.74 1454.96 L757.666 1454.96 L757.666 1463.43 Q758.685 1463.08 759.703 1462.92 Q760.722 1462.73 761.74 1462.73 Q767.527 1462.73 770.907 1465.9 Q774.286 1469.08 774.286 1474.49 Q774.286 1480.07 770.814 1483.17 Q767.342 1486.25 761.023 1486.25 Q758.847 1486.25 756.578 1485.88 Q754.333 1485.51 751.925 1484.77 L751.925 1480.07 Q754.009 1481.2 756.231 1481.76 Q758.453 1482.32 760.93 1482.32 Q764.935 1482.32 767.273 1480.21 Q769.611 1478.1 769.611 1474.49 Q769.611 1470.88 767.273 1468.77 Q764.935 1466.67 760.93 1466.67 Q759.055 1466.67 757.18 1467.08 Q755.328 1467.5 753.384 1468.38 L753.384 1451.02 Z" fill="#000000" fill-rule="nonzero" fill-opacity="1"></path><path clip-path="url(#clip190)" d="M1244.89 1481.64 L1252.53 1481.64 L1252.53 1455.28 L1244.22 1456.95 L1244.22 1452.69 L1252.48 1451.02 L1257.16 1451.02 L1257.16 1481.64 L1264.79 1481.64 L1264.79 1485.58 L1244.89 1485.58 L1244.89 1481.64 Z" fill="#000000" fill-rule="nonzero" fill-opacity="1"></path><path clip-path="url(#clip190)" d="M1274.24 1479.7 L1279.12 1479.7 L1279.12 1485.58 L1274.24 1485.58 L1274.24 1479.7 Z" fill="#000000" fill-rule="nonzero" fill-opacity="1"></path><path clip-path="url(#clip190)" d="M1299.31 1454.1 Q1295.7 1454.1 1293.87 1457.66 Q1292.06 1461.2 1292.06 1468.33 Q1292.06 1475.44 1293.87 1479.01 Q1295.7 1482.55 1299.31 1482.55 Q1302.94 1482.55 1304.75 1479.01 Q1306.58 1475.44 1306.58 1468.33 Q1306.58 1461.2 1304.75 1457.66 Q1302.94 1454.1 1299.31 1454.1 M1299.31 1450.39 Q1305.12 1450.39 1308.17 1455 Q1311.25 1459.58 1311.25 1468.33 Q1311.25 1477.06 1308.17 1481.67 Q1305.12 1486.25 1299.31 1486.25 Q1293.5 1486.25 1290.42 1481.67 Q1287.36 1477.06 1287.36 1468.33 Q1287.36 1459.58 1290.42 1455 Q1293.5 1450.39 1299.31 1450.39 Z" fill="#000000" fill-rule="nonzero" fill-opacity="1"></path><path clip-path="url(#clip190)" d="M1782.9 1481.64 L1790.53 1481.64 L1790.53 1455.28 L1782.22 1456.95 L1782.22 1452.69 L1790.49 1451.02 L1795.16 1451.02 L1795.16 1481.64 L1802.8 1481.64 L1802.8 1485.58 L1782.9 1485.58 L1782.9 1481.64 Z" fill="#000000" fill-rule="nonzero" fill-opacity="1"></path><path clip-path="url(#clip190)" d="M1812.25 1479.7 L1817.13 1479.7 L1817.13 1485.58 L1812.25 1485.58 L1812.25 1479.7 Z" fill="#000000" fill-rule="nonzero" fill-opacity="1"></path><path clip-path="url(#clip190)" d="M1827.36 1451.02 L1845.72 1451.02 L1845.72 1454.96 L1831.65 1454.96 L1831.65 1463.43 Q1832.66 1463.08 1833.68 1462.92 Q1834.7 1462.73 1835.72 1462.73 Q1841.51 1462.73 1844.89 1465.9 Q1848.27 1469.08 1848.27 1474.49 Q1848.27 1480.07 1844.79 1483.17 Q1841.32 1486.25 1835 1486.25 Q1832.83 1486.25 1830.56 1485.88 Q1828.31 1485.51 1825.9 1484.77 L1825.9 1480.07 Q1827.99 1481.2 1830.21 1481.76 Q1832.43 1482.32 1834.91 1482.32 Q1838.91 1482.32 1841.25 1480.21 Q1843.59 1478.1 1843.59 1474.49 Q1843.59 1470.88 1841.25 1468.77 Q1838.91 1466.67 1834.91 1466.67 Q1833.03 1466.67 1831.16 1467.08 Q1829.31 1467.5 1827.36 1468.38 L1827.36 1451.02 Z" fill="#000000" fill-rule="nonzero" fill-opacity="1"></path><path clip-path="url(#clip190)" d="M2323.99 1481.64 L2340.31 1481.64 L2340.31 1485.58 L2318.37 1485.58 L2318.37 1481.64 Q2321.03 1478.89 2325.61 1474.26 Q2330.22 1469.61 2331.4 1468.27 Q2333.65 1465.74 2334.53 1464.01 Q2335.43 1462.25 2335.43 1460.56 Q2335.43 1457.8 2333.49 1456.07 Q2331.56 1454.33 2328.46 1454.33 Q2326.26 1454.33 2323.81 1455.09 Q2321.38 1455.86 2318.6 1457.41 L2318.6 1452.69 Q2321.43 1451.55 2323.88 1450.97 Q2326.33 1450.39 2328.37 1450.39 Q2333.74 1450.39 2336.93 1453.08 Q2340.13 1455.77 2340.13 1460.26 Q2340.13 1462.39 2339.32 1464.31 Q2338.53 1466.2 2336.42 1468.8 Q2335.85 1469.47 2332.74 1472.69 Q2329.64 1475.88 2323.99 1481.64 Z" fill="#000000" fill-rule="nonzero" fill-opacity="1"></path><path clip-path="url(#clip190)" d="M2350.13 1479.7 L2355.01 1479.7 L2355.01 1485.58 L2350.13 1485.58 L2350.13 1479.7 Z" fill="#000000" fill-rule="nonzero" fill-opacity="1"></path><path clip-path="url(#clip190)" d="M2375.2 1454.1 Q2371.59 1454.1 2369.76 1457.66 Q2367.95 1461.2 2367.95 1468.33 Q2367.95 1475.44 2369.76 1479.01 Q2371.59 1482.55 2375.2 1482.55 Q2378.83 1482.55 2380.64 1479.01 Q2382.47 1475.44 2382.47 1468.33 Q2382.47 1461.2 2380.64 1457.66 Q2378.83 1454.1 2375.2 1454.1 M2375.2 1450.39 Q2381.01 1450.39 2384.06 1455 Q2387.14 1459.58 2387.14 1468.33 Q2387.14 1477.06 2384.06 1481.67 Q2381.01 1486.25 2375.2 1486.25 Q2369.39 1486.25 2366.31 1481.67 Q2363.25 1477.06 2363.25 1468.33 Q2363.25 1459.58 2366.31 1455 Q2369.39 1450.39 2375.2 1450.39 Z" fill="#000000" fill-rule="nonzero" fill-opacity="1"></path><path clip-path="url(#clip190)" d="M1276.8 1522.27 L1276.8 1532.4 L1288.86 1532.4 L1288.86 1536.95 L1276.8 1536.95 L1276.8 1556.3 Q1276.8 1560.66 1277.97 1561.9 Q1279.18 1563.14 1282.84 1563.14 L1288.86 1563.14 L1288.86 1568.04 L1282.84 1568.04 Q1276.06 1568.04 1273.49 1565.53 Q1270.91 1562.98 1270.91 1556.3 L1270.91 1536.95 L1266.61 1536.95 L1266.61 1532.4 L1270.91 1532.4 L1270.91 1522.27 L1276.8 1522.27 Z" fill="#000000" fill-rule="nonzero" fill-opacity="1"></path><polyline clip-path="url(#clip190)" style="stroke:#000000; stroke-linecap:round; stroke-linejoin:round; stroke-width:4; stroke-opacity:1; fill:none" points="202.714,1423.18 202.714,123.472 "></polyline>
<polyline clip-path="url(#clip190)" style="stroke:#000000; stroke-linecap:round; stroke-linejoin:round; stroke-width:4; stroke-opacity:1; fill:none" points="202.714,1257.58 221.611,1257.58 "></polyline>
<polyline clip-path="url(#clip190)" style="stroke:#000000; stroke-linecap:round; stroke-linejoin:round; stroke-width:4; stroke-opacity:1; fill:none" points="202.714,1085.83 221.611,1085.83 "></polyline>
<polyline clip-path="url(#clip190)" style="stroke:#000000; stroke-linecap:round; stroke-linejoin:round; stroke-width:4; stroke-opacity:1; fill:none" points="202.714,914.081 221.611,914.081 "></polyline>
<polyline clip-path="url(#clip190)" style="stroke:#000000; stroke-linecap:round; stroke-linejoin:round; stroke-width:4; stroke-opacity:1; fill:none" points="202.714,742.33 221.611,742.33 "></polyline>
<polyline clip-path="url(#clip190)" style="stroke:#000000; stroke-linecap:round; stroke-linejoin:round; stroke-width:4; stroke-opacity:1; fill:none" points="202.714,570.579 221.611,570.579 "></polyline>
<polyline clip-path="url(#clip190)" style="stroke:#000000; stroke-linecap:round; stroke-linejoin:round; stroke-width:4; stroke-opacity:1; fill:none" points="202.714,398.828 221.611,398.828 "></polyline>
<polyline clip-path="url(#clip190)" style="stroke:#000000; stroke-linecap:round; stroke-linejoin:round; stroke-width:4; stroke-opacity:1; fill:none" points="202.714,227.077 221.611,227.077 "></polyline>
<path clip-path="url(#clip190)" d="M150.394 1270.93 L166.714 1270.93 L166.714 1274.86 L144.769 1274.86 L144.769 1270.93 Q147.431 1268.17 152.015 1263.54 Q156.621 1258.89 157.802 1257.55 Q160.047 1255.02 160.927 1253.29 Q161.829 1251.53 161.829 1249.84 Q161.829 1247.08 159.885 1245.35 Q157.964 1243.61 154.862 1243.61 Q152.663 1243.61 150.209 1244.38 Q147.778 1245.14 145.001 1246.69 L145.001 1241.97 Q147.825 1240.83 150.278 1240.26 Q152.732 1239.68 154.769 1239.68 Q160.14 1239.68 163.334 1242.36 Q166.528 1245.05 166.528 1249.54 Q166.528 1251.67 165.718 1253.59 Q164.931 1255.49 162.825 1258.08 Q162.246 1258.75 159.144 1261.97 Q156.042 1265.16 150.394 1270.93 Z" fill="#000000" fill-rule="nonzero" fill-opacity="1"></path><path clip-path="url(#clip190)" d="M157.13 1072.63 L145.325 1091.07 L157.13 1091.07 L157.13 1072.63 M155.903 1068.55 L161.783 1068.55 L161.783 1091.07 L166.714 1091.07 L166.714 1094.96 L161.783 1094.96 L161.783 1103.11 L157.13 1103.11 L157.13 1094.96 L141.529 1094.96 L141.529 1090.45 L155.903 1068.55 Z" fill="#000000" fill-rule="nonzero" fill-opacity="1"></path><path clip-path="url(#clip190)" d="M155.186 912.217 Q152.038 912.217 150.186 914.37 Q148.357 916.523 148.357 920.273 Q148.357 924 150.186 926.176 Q152.038 928.328 155.186 928.328 Q158.334 928.328 160.163 926.176 Q162.015 924 162.015 920.273 Q162.015 916.523 160.163 914.37 Q158.334 912.217 155.186 912.217 M164.468 897.565 L164.468 901.824 Q162.709 900.99 160.903 900.551 Q159.121 900.111 157.362 900.111 Q152.732 900.111 150.278 903.236 Q147.848 906.361 147.501 912.68 Q148.866 910.666 150.927 909.602 Q152.987 908.514 155.464 908.514 Q160.672 908.514 163.681 911.685 Q166.714 914.833 166.714 920.273 Q166.714 925.597 163.565 928.814 Q160.417 932.032 155.186 932.032 Q149.191 932.032 146.019 927.449 Q142.848 922.842 142.848 914.115 Q142.848 905.921 146.737 901.06 Q150.626 896.176 157.177 896.176 Q158.936 896.176 160.718 896.523 Q162.524 896.87 164.468 897.565 Z" fill="#000000" fill-rule="nonzero" fill-opacity="1"></path><path clip-path="url(#clip190)" d="M154.862 743.198 Q151.528 743.198 149.607 744.98 Q147.709 746.763 147.709 749.888 Q147.709 753.013 149.607 754.795 Q151.528 756.577 154.862 756.577 Q158.195 756.577 160.116 754.795 Q162.038 752.989 162.038 749.888 Q162.038 746.763 160.116 744.98 Q158.218 743.198 154.862 743.198 M150.186 741.207 Q147.177 740.466 145.487 738.406 Q143.82 736.346 143.82 733.383 Q143.82 729.24 146.76 726.832 Q149.723 724.425 154.862 724.425 Q160.024 724.425 162.964 726.832 Q165.903 729.24 165.903 733.383 Q165.903 736.346 164.214 738.406 Q162.547 740.466 159.561 741.207 Q162.94 741.994 164.815 744.286 Q166.714 746.577 166.714 749.888 Q166.714 754.911 163.635 757.596 Q160.579 760.281 154.862 760.281 Q149.144 760.281 146.066 757.596 Q143.01 754.911 143.01 749.888 Q143.01 746.577 144.908 744.286 Q146.806 741.994 150.186 741.207 M148.473 733.823 Q148.473 736.508 150.14 738.013 Q151.829 739.517 154.862 739.517 Q157.871 739.517 159.561 738.013 Q161.274 736.508 161.274 733.823 Q161.274 731.138 159.561 729.633 Q157.871 728.128 154.862 728.128 Q151.829 728.128 150.14 729.633 Q148.473 731.138 148.473 733.823 Z" fill="#000000" fill-rule="nonzero" fill-opacity="1"></path><path clip-path="url(#clip190)" d="M115.418 583.924 L123.056 583.924 L123.056 557.558 L114.746 559.225 L114.746 554.966 L123.01 553.299 L127.686 553.299 L127.686 583.924 L135.325 583.924 L135.325 587.859 L115.418 587.859 L115.418 583.924 Z" fill="#000000" fill-rule="nonzero" fill-opacity="1"></path><path clip-path="url(#clip190)" d="M154.769 556.378 Q151.158 556.378 149.329 559.942 Q147.524 563.484 147.524 570.614 Q147.524 577.72 149.329 581.285 Q151.158 584.826 154.769 584.826 Q158.403 584.826 160.209 581.285 Q162.038 577.72 162.038 570.614 Q162.038 563.484 160.209 559.942 Q158.403 556.378 154.769 556.378 M154.769 552.674 Q160.579 552.674 163.635 557.28 Q166.714 561.864 166.714 570.614 Q166.714 579.34 163.635 583.947 Q160.579 588.53 154.769 588.53 Q148.959 588.53 145.88 583.947 Q142.825 579.34 142.825 570.614 Q142.825 561.864 145.88 557.28 Q148.959 552.674 154.769 552.674 Z" fill="#000000" fill-rule="nonzero" fill-opacity="1"></path><path clip-path="url(#clip190)" d="M117.015 412.173 L124.654 412.173 L124.654 385.807 L116.343 387.474 L116.343 383.215 L124.607 381.548 L129.283 381.548 L129.283 412.173 L136.922 412.173 L136.922 416.108 L117.015 416.108 L117.015 412.173 Z" fill="#000000" fill-rule="nonzero" fill-opacity="1"></path><path clip-path="url(#clip190)" d="M150.394 412.173 L166.714 412.173 L166.714 416.108 L144.769 416.108 L144.769 412.173 Q147.431 409.418 152.015 404.789 Q156.621 400.136 157.802 398.793 Q160.047 396.27 160.927 394.534 Q161.829 392.775 161.829 391.085 Q161.829 388.33 159.885 386.594 Q157.964 384.858 154.862 384.858 Q152.663 384.858 150.209 385.622 Q147.778 386.386 145.001 387.937 L145.001 383.215 Q147.825 382.08 150.278 381.502 Q152.732 380.923 154.769 380.923 Q160.14 380.923 163.334 383.608 Q166.528 386.293 166.528 390.784 Q166.528 392.914 165.718 394.835 Q164.931 396.733 162.825 399.326 Q162.246 399.997 159.144 403.215 Q156.042 406.409 150.394 412.173 Z" fill="#000000" fill-rule="nonzero" fill-opacity="1"></path><path clip-path="url(#clip190)" d="M114.931 240.422 L122.57 240.422 L122.57 214.056 L114.26 215.723 L114.26 211.464 L122.524 209.797 L127.2 209.797 L127.2 240.422 L134.839 240.422 L134.839 244.357 L114.931 244.357 L114.931 240.422 Z" fill="#000000" fill-rule="nonzero" fill-opacity="1"></path><path clip-path="url(#clip190)" d="M157.13 213.871 L145.325 232.32 L157.13 232.32 L157.13 213.871 M155.903 209.797 L161.783 209.797 L161.783 232.32 L166.714 232.32 L166.714 236.209 L161.783 236.209 L161.783 244.357 L157.13 244.357 L157.13 236.209 L141.529 236.209 L141.529 231.695 L155.903 209.797 Z" fill="#000000" fill-rule="nonzero" fill-opacity="1"></path><path clip-path="url(#clip190)" d="M67.3143 771.639 Q73.68 774.122 75.6216 776.477 Q77.5631 778.832 77.5631 782.779 L77.5631 787.458 L72.6615 787.458 L72.6615 784.02 Q72.6615 781.601 71.5157 780.265 Q70.3699 778.928 66.1048 777.305 L63.4312 776.254 L28.3562 790.673 L28.3562 784.466 L56.238 773.326 L28.3562 762.186 L28.3562 755.979 L67.3143 771.639 Z" fill="#000000" fill-rule="nonzero" fill-opacity="1"></path><path clip-path="url(#clip190)" d="M794.462 17.6457 Q785.55 17.6457 780.284 24.2892 Q775.058 30.9327 775.058 42.3968 Q775.058 53.8203 780.284 60.4638 Q785.55 67.1073 794.462 67.1073 Q803.374 67.1073 808.559 60.4638 Q813.785 53.8203 813.785 42.3968 Q813.785 30.9327 808.559 24.2892 Q803.374 17.6457 794.462 17.6457 M794.462 11.0023 Q807.182 11.0023 814.797 19.5497 Q822.413 28.0566 822.413 42.3968 Q822.413 56.6965 814.797 65.2439 Q807.182 73.7508 794.462 73.7508 Q781.702 73.7508 774.045 65.2439 Q766.43 56.737 766.43 42.3968 Q766.43 28.0566 774.045 19.5497 Q781.702 11.0023 794.462 11.0023 Z" fill="#000000" fill-rule="nonzero" fill-opacity="1"></path><path clip-path="url(#clip190)" d="M843.397 18.8205 L843.397 65.8515 L853.281 65.8515 Q865.798 65.8515 871.591 60.1802 Q877.424 54.509 877.424 42.2752 Q877.424 30.1225 871.591 24.4918 Q865.798 18.8205 853.281 18.8205 L843.397 18.8205 M835.214 12.096 L852.025 12.096 Q869.606 12.096 877.829 19.4281 Q886.053 26.7198 886.053 42.2752 Q886.053 57.9117 877.789 65.2439 Q869.525 72.576 852.025 72.576 L835.214 72.576 L835.214 12.096 Z" fill="#000000" fill-rule="nonzero" fill-opacity="1"></path><path clip-path="url(#clip190)" d="M899.097 12.096 L937.337 12.096 L937.337 18.9825 L907.28 18.9825 L907.28 36.8875 L936.081 36.8875 L936.081 43.7741 L907.28 43.7741 L907.28 65.6895 L938.066 65.6895 L938.066 72.576 L899.097 72.576 L899.097 12.096 Z" fill="#000000" fill-rule="nonzero" fill-opacity="1"></path><path clip-path="url(#clip190)" d="M1014.14 14.0809 L1014.14 22.0612 Q1009.48 19.8332 1005.35 18.7395 Q1001.22 17.6457 997.372 17.6457 Q990.688 17.6457 987.042 20.2383 Q983.437 22.8309 983.437 27.611 Q983.437 31.6214 985.827 33.6873 Q988.257 35.7128 994.982 36.9686 L999.924 37.9813 Q1009.08 39.7232 1013.41 44.1387 Q1017.79 48.5136 1017.79 55.8863 Q1017.79 64.6767 1011.87 69.2137 Q1006 73.7508 994.617 73.7508 Q990.323 73.7508 985.462 72.7785 Q980.641 71.8063 975.456 69.9024 L975.456 61.4765 Q980.439 64.2716 985.219 65.6895 Q989.999 67.1073 994.617 67.1073 Q1001.63 67.1073 1005.43 64.3527 Q1009.24 61.598 1009.24 56.4939 Q1009.24 52.0379 1006.49 49.5264 Q1003.77 47.0148 997.534 45.759 L992.551 44.7868 Q983.396 42.9639 979.305 39.075 Q975.213 35.1862 975.213 28.2591 Q975.213 20.2383 980.844 15.6203 Q986.515 11.0023 996.44 11.0023 Q1000.69 11.0023 1005.11 11.7719 Q1009.52 12.5416 1014.14 14.0809 Z" fill="#000000" fill-rule="nonzero" fill-opacity="1"></path><path clip-path="url(#clip190)" d="M1047.81 32.4315 Q1041.81 32.4315 1038.33 37.1306 Q1034.84 41.7891 1034.84 49.9314 Q1034.84 58.0738 1038.29 62.7728 Q1041.77 67.4314 1047.81 67.4314 Q1053.76 67.4314 1057.24 62.7323 Q1060.73 58.0333 1060.73 49.9314 Q1060.73 41.8701 1057.24 37.1711 Q1053.76 32.4315 1047.81 32.4315 M1047.81 26.1121 Q1057.53 26.1121 1063.08 32.4315 Q1068.63 38.7509 1068.63 49.9314 Q1068.63 61.0714 1063.08 67.4314 Q1057.53 73.7508 1047.81 73.7508 Q1038.04 73.7508 1032.49 67.4314 Q1026.98 61.0714 1026.98 49.9314 Q1026.98 38.7509 1032.49 32.4315 Q1038.04 26.1121 1047.81 26.1121 Z" fill="#000000" fill-rule="nonzero" fill-opacity="1"></path><path clip-path="url(#clip190)" d="M1080.98 9.54393 L1088.44 9.54393 L1088.44 72.576 L1080.98 72.576 L1080.98 9.54393 Z" fill="#000000" fill-rule="nonzero" fill-opacity="1"></path><path clip-path="url(#clip190)" d="M1103.26 54.671 L1103.26 27.2059 L1110.72 27.2059 L1110.72 54.3874 Q1110.72 60.8284 1113.23 64.0691 Q1115.74 67.2693 1120.76 67.2693 Q1126.8 67.2693 1130.28 63.421 Q1133.81 59.5726 1133.81 52.9291 L1133.81 27.2059 L1141.26 27.2059 L1141.26 72.576 L1133.81 72.576 L1133.81 65.6084 Q1131.09 69.7404 1127.49 71.7658 Q1123.92 73.7508 1119.18 73.7508 Q1111.36 73.7508 1107.31 68.8897 Q1103.26 64.0286 1103.26 54.671 M1122.02 26.1121 L1122.02 26.1121 Z" fill="#000000" fill-rule="nonzero" fill-opacity="1"></path><path clip-path="url(#clip190)" d="M1163.99 14.324 L1163.99 27.2059 L1179.34 27.2059 L1179.34 32.9987 L1163.99 32.9987 L1163.99 57.6282 Q1163.99 63.1779 1165.48 64.7578 Q1167.02 66.3376 1171.68 66.3376 L1179.34 66.3376 L1179.34 72.576 L1171.68 72.576 Q1163.05 72.576 1159.77 69.3758 Q1156.49 66.1351 1156.49 57.6282 L1156.49 32.9987 L1151.02 32.9987 L1151.02 27.2059 L1156.49 27.2059 L1156.49 14.324 L1163.99 14.324 Z" fill="#000000" fill-rule="nonzero" fill-opacity="1"></path><path clip-path="url(#clip190)" d="M1189.14 27.2059 L1196.6 27.2059 L1196.6 72.576 L1189.14 72.576 L1189.14 27.2059 M1189.14 9.54393 L1196.6 9.54393 L1196.6 18.9825 L1189.14 18.9825 L1189.14 9.54393 Z" fill="#000000" fill-rule="nonzero" fill-opacity="1"></path><path clip-path="url(#clip190)" d="M1229.77 32.4315 Q1223.78 32.4315 1220.29 37.1306 Q1216.81 41.7891 1216.81 49.9314 Q1216.81 58.0738 1220.25 62.7728 Q1223.74 67.4314 1229.77 67.4314 Q1235.73 67.4314 1239.21 62.7323 Q1242.69 58.0333 1242.69 49.9314 Q1242.69 41.8701 1239.21 37.1711 Q1235.73 32.4315 1229.77 32.4315 M1229.77 26.1121 Q1239.49 26.1121 1245.04 32.4315 Q1250.59 38.7509 1250.59 49.9314 Q1250.59 61.0714 1245.04 67.4314 Q1239.49 73.7508 1229.77 73.7508 Q1220.01 73.7508 1214.46 67.4314 Q1208.95 61.0714 1208.95 49.9314 Q1208.95 38.7509 1214.46 32.4315 Q1220.01 26.1121 1229.77 26.1121 Z" fill="#000000" fill-rule="nonzero" fill-opacity="1"></path><path clip-path="url(#clip190)" d="M1300.66 45.1919 L1300.66 72.576 L1293.21 72.576 L1293.21 45.4349 Q1293.21 38.994 1290.7 35.7938 Q1288.19 32.5936 1283.16 32.5936 Q1277.13 32.5936 1273.64 36.4419 Q1270.16 40.2903 1270.16 46.9338 L1270.16 72.576 L1262.67 72.576 L1262.67 27.2059 L1270.16 27.2059 L1270.16 34.2544 Q1272.83 30.163 1276.44 28.1376 Q1280.08 26.1121 1284.82 26.1121 Q1292.64 26.1121 1296.65 30.9732 Q1300.66 35.7938 1300.66 45.1919 Z" fill="#000000" fill-rule="nonzero" fill-opacity="1"></path><path clip-path="url(#clip190)" d="M1344.45 28.5427 L1344.45 35.5912 Q1341.29 33.9709 1337.89 33.1607 Q1334.49 32.3505 1330.84 32.3505 Q1325.29 32.3505 1322.5 34.0519 Q1319.74 35.7533 1319.74 39.156 Q1319.74 41.7486 1321.73 43.2475 Q1323.71 44.7058 1329.71 46.0426 L1332.26 46.6097 Q1340.2 48.3111 1343.52 51.4303 Q1346.88 54.509 1346.88 60.0587 Q1346.88 66.3781 1341.86 70.0644 Q1336.88 73.7508 1328.13 73.7508 Q1324.48 73.7508 1320.51 73.0216 Q1316.58 72.3329 1312.21 70.9151 L1312.21 63.2184 Q1316.34 65.3654 1320.35 66.4591 Q1324.36 67.5124 1328.29 67.5124 Q1333.56 67.5124 1336.39 65.73 Q1339.23 63.9071 1339.23 60.6258 Q1339.23 57.5877 1337.16 55.9673 Q1335.14 54.3469 1328.21 52.8481 L1325.62 52.2405 Q1318.69 50.7821 1315.61 47.7845 Q1312.53 44.7463 1312.53 39.4801 Q1312.53 33.0797 1317.07 29.5959 Q1321.61 26.1121 1329.95 26.1121 Q1334.08 26.1121 1337.73 26.7198 Q1341.37 27.3274 1344.45 28.5427 Z" fill="#000000" fill-rule="nonzero" fill-opacity="1"></path><path clip-path="url(#clip190)" d="M1360.66 62.2867 L1369.2 62.2867 L1369.2 72.576 L1360.66 72.576 L1360.66 62.2867 M1360.66 29.6769 L1369.2 29.6769 L1369.2 39.9662 L1360.66 39.9662 L1360.66 29.6769 Z" fill="#000000" fill-rule="nonzero" fill-opacity="1"></path><path clip-path="url(#clip190)" d="M1442.93 34.0924 L1442.93 9.54393 L1450.38 9.54393 L1450.38 72.576 L1442.93 72.576 L1442.93 65.7705 Q1440.58 69.8214 1436.98 71.8063 Q1433.41 73.7508 1428.39 73.7508 Q1420.16 73.7508 1414.98 67.1883 Q1409.83 60.6258 1409.83 49.9314 Q1409.83 39.2371 1414.98 32.6746 Q1420.16 26.1121 1428.39 26.1121 Q1433.41 26.1121 1436.98 28.0971 Q1440.58 30.0415 1442.93 34.0924 M1417.53 49.9314 Q1417.53 58.1548 1420.89 62.8538 Q1424.3 67.5124 1430.21 67.5124 Q1436.13 67.5124 1439.53 62.8538 Q1442.93 58.1548 1442.93 49.9314 Q1442.93 41.7081 1439.53 37.0496 Q1436.13 32.3505 1430.21 32.3505 Q1424.3 32.3505 1420.89 37.0496 Q1417.53 41.7081 1417.53 49.9314 Z" fill="#000000" fill-rule="nonzero" fill-opacity="1"></path><path clip-path="url(#clip190)" d="M1484.61 76.7889 Q1481.45 84.8907 1478.46 87.3618 Q1475.46 89.8329 1470.44 89.8329 L1464.48 89.8329 L1464.48 83.5945 L1468.86 83.5945 Q1471.94 83.5945 1473.64 82.1361 Q1475.34 80.6778 1477.4 75.2496 L1478.74 71.8468 L1460.39 27.2059 L1468.29 27.2059 L1482.47 62.6918 L1496.65 27.2059 L1504.54 27.2059 L1484.61 76.7889 Z" fill="#000000" fill-rule="nonzero" fill-opacity="1"></path><path clip-path="url(#clip190)" d="M1528.08 12.096 L1534.97 12.096 L1513.9 80.2727 L1507.02 80.2727 L1528.08 12.096 Z" fill="#000000" fill-rule="nonzero" fill-opacity="1"></path><path clip-path="url(#clip190)" d="M1572.64 34.0924 L1572.64 9.54393 L1580.09 9.54393 L1580.09 72.576 L1572.64 72.576 L1572.64 65.7705 Q1570.29 69.8214 1566.69 71.8063 Q1563.12 73.7508 1558.1 73.7508 Q1549.87 73.7508 1544.69 67.1883 Q1539.54 60.6258 1539.54 49.9314 Q1539.54 39.2371 1544.69 32.6746 Q1549.87 26.1121 1558.1 26.1121 Q1563.12 26.1121 1566.69 28.0971 Q1570.29 30.0415 1572.64 34.0924 M1547.24 49.9314 Q1547.24 58.1548 1550.6 62.8538 Q1554.01 67.5124 1559.92 67.5124 Q1565.84 67.5124 1569.24 62.8538 Q1572.64 58.1548 1572.64 49.9314 Q1572.64 41.7081 1569.24 37.0496 Q1565.84 32.3505 1559.92 32.3505 Q1554.01 32.3505 1550.6 37.0496 Q1547.24 41.7081 1547.24 49.9314 Z" fill="#000000" fill-rule="nonzero" fill-opacity="1"></path><path clip-path="url(#clip190)" d="M1602.82 14.324 L1602.82 27.2059 L1618.17 27.2059 L1618.17 32.9987 L1602.82 32.9987 L1602.82 57.6282 Q1602.82 63.1779 1604.32 64.7578 Q1605.86 66.3376 1610.52 66.3376 L1618.17 66.3376 L1618.17 72.576 L1610.52 72.576 Q1601.89 72.576 1598.61 69.3758 Q1595.33 66.1351 1595.33 57.6282 L1595.33 32.9987 L1589.86 32.9987 L1589.86 27.2059 L1595.33 27.2059 L1595.33 14.324 L1602.82 14.324 Z" fill="#000000" fill-rule="nonzero" fill-opacity="1"></path><path clip-path="url(#clip190)" d="M1655.32 34.9026 L1707.25 34.9026 L1707.25 41.7081 L1655.32 41.7081 L1655.32 34.9026 M1655.32 51.4303 L1707.25 51.4303 L1707.25 58.3168 L1655.32 58.3168 L1655.32 51.4303 Z" fill="#000000" fill-rule="nonzero" fill-opacity="1"></path><path clip-path="url(#clip190)" d="M1769.11 76.7889 Q1765.95 84.8907 1762.95 87.3618 Q1759.95 89.8329 1754.93 89.8329 L1748.98 89.8329 L1748.98 83.5945 L1753.35 83.5945 Q1756.43 83.5945 1758.13 82.1361 Q1759.83 80.6778 1761.9 75.2496 L1763.24 71.8468 L1744.89 27.2059 L1752.78 27.2059 L1766.96 62.6918 L1781.14 27.2059 L1789.04 27.2059 L1769.11 76.7889 Z" fill="#000000" fill-rule="nonzero" fill-opacity="1"></path><polyline clip-path="url(#clip192)" style="stroke:#0000ff; stroke-linecap:round; stroke-linejoin:round; stroke-width:4; stroke-opacity:1; fill:none" points="202.714,1386.4 216.712,1385.83 346.143,1380.27 423.926,1376.59 489.69,1373.26 561.128,1369.4 626.988,1365.62 697.597,1361.29 779.405,1355.91 852.105,1350.78 915.857,1345.98 985.364,1340.41 1055.28,1334.43 1132.59,1327.36 1206.14,1320.14 1282.62,1312.08 1347,1304.85 1425.6,1295.41 1497.6,1286.13 1564.1,1276.99 1631.47,1267.14 1669.21,1261.34 1706.96,1255.34 1741.16,1249.71 1775.37,1243.91 1814.53,1237.03 1853.69,1229.89 1889.95,1223.05 1926.21,1215.97 1961.96,1208.76 1997.71,1201.3 2032.42,1193.82 2067.13,1186.09 2102.71,1177.91 2138.29,1169.44 2177.28,1159.85 2216.26,1149.9 2272.89,1134.78 2329.52,1118.85 2341.14,1115.47 2352.76,1112.06 "></polyline>
<polyline clip-path="url(#clip192)" style="stroke:#0000ff; stroke-linecap:round; stroke-linejoin:round; stroke-width:4; stroke-opacity:1; fill:none" points="202.714,1343.46 216.712,1342.33 346.143,1331.2 423.926,1323.84 489.69,1317.18 561.128,1309.48 626.988,1301.9 697.597,1293.25 779.405,1282.49 852.105,1272.22 915.857,1262.62 985.364,1251.49 1055.28,1239.53 1132.59,1225.38 1206.14,1210.94 1282.62,1194.84 1347,1180.36 1425.6,1161.48 1497.6,1142.92 1564.1,1124.65 1631.47,1104.94 1669.21,1093.35 1706.96,1081.35 1741.16,1070.09 1775.37,1058.48 1814.53,1044.72 1853.69,1030.45 1889.95,1016.77 1926.21,1002.62 1961.96,988.187 1997.71,973.27 2032.42,958.305 2067.13,942.849 2102.71,926.477 2138.29,909.555 2177.28,890.361 2216.26,870.457 2272.89,840.227 2329.52,808.363 2341.14,801.615 2352.76,794.795 "></polyline>
<polyline clip-path="url(#clip192)" style="stroke:#0000ff; stroke-linecap:round; stroke-linejoin:round; stroke-width:4; stroke-opacity:1; fill:none" points="202.714,1300.52 216.712,1298.83 346.143,1282.13 423.926,1271.09 489.69,1261.11 561.128,1249.55 626.988,1238.19 697.597,1225.21 779.405,1209.07 852.105,1193.66 915.857,1179.26 985.364,1162.56 1055.28,1144.63 1132.59,1123.41 1206.14,1101.74 1282.62,1077.59 1347,1055.88 1425.6,1027.55 1497.6,999.719 1564.1,972.304 1631.47,942.75 1669.21,925.361 1706.96,907.351 1741.16,890.476 1775.37,873.055 1814.53,852.416 1853.69,831.012 1889.95,810.486 1926.21,789.256 1961.96,767.613 1997.71,745.238 2032.42,722.791 2067.13,699.606 2102.71,675.049 2138.29,649.666 2177.28,620.874 2216.26,591.019 2272.89,545.674 2329.52,497.877 2341.14,487.756 2352.76,477.526 "></polyline>
<polyline clip-path="url(#clip192)" style="stroke:#0000ff; stroke-linecap:round; stroke-linejoin:round; stroke-width:4; stroke-opacity:1; fill:none" points="202.714,1257.58 216.712,1255.33 346.143,1233.07 423.926,1218.34 489.69,1205.03 561.128,1189.62 626.988,1174.47 697.597,1157.17 779.405,1135.65 852.105,1115.11 915.857,1095.91 985.364,1073.64 1055.28,1049.73 1132.59,1021.43 1206.14,992.545 1282.62,960.339 1347,931.394 1425.6,893.624 1497.6,856.514 1564.1,819.961 1631.47,780.556 1669.21,757.37 1706.96,733.357 1741.16,710.856 1775.37,687.628 1814.53,660.11 1853.69,631.571 1889.95,604.204 1926.21,575.897 1961.96,547.04 1997.71,517.207 2032.42,487.276 2067.13,456.364 2102.71,423.621 2138.29,389.777 2177.28,351.388 2216.26,311.581 2272.89,251.121 2329.52,187.392 2341.14,173.897 2352.76,160.256 "></polyline>
<polyline clip-path="url(#clip192)" style="stroke:#ff0000; stroke-linecap:round; stroke-linejoin:round; stroke-width:8; stroke-opacity:1; fill:none" points="202.714,1343.46 204.866,1343.29 207.018,1343.11 209.17,1342.94 211.322,1342.77 213.475,1342.59 215.627,1342.42 217.779,1342.25 219.931,1342.07 222.083,1341.9 224.236,1341.72 226.388,1341.55 228.54,1341.37 230.692,1341.19 232.844,1341.02 234.996,1340.84 237.149,1340.66 239.301,1340.48 241.453,1340.31 243.605,1340.13 245.757,1339.95 247.91,1339.77 250.062,1339.59 252.214,1339.41 254.366,1339.23 256.518,1339.05 258.671,1338.87 260.823,1338.69 262.975,1338.51 265.127,1338.32 267.279,1338.14 269.432,1337.96 271.584,1337.78 273.736,1337.59 275.888,1337.41 278.04,1337.22 280.193,1337.04 282.345,1336.86 284.497,1336.67 286.649,1336.48 288.801,1336.3 290.954,1336.11 293.106,1335.92 295.258,1335.74 297.41,1335.55 299.562,1335.36 301.715,1335.17 303.867,1334.99 306.019,1334.8 308.171,1334.61 310.323,1334.42 312.476,1334.23 314.628,1334.04 316.78,1333.85 318.932,1333.65 321.084,1333.46 323.236,1333.27 325.389,1333.08 327.541,1332.88 329.693,1332.69 331.845,1332.5 333.997,1332.3 336.15,1332.11 338.302,1331.91 340.454,1331.72 342.606,1331.52 344.758,1331.33 346.911,1331.13 349.063,1330.93 351.215,1330.74 353.367,1330.54 355.519,1330.34 357.672,1330.14 359.824,1329.94 361.976,1329.74 364.128,1329.55 366.28,1329.35 368.433,1329.15 370.585,1328.94 372.737,1328.74 374.889,1328.54 377.041,1328.34 379.194,1328.14 381.346,1327.93 383.498,1327.73 385.65,1327.53 387.802,1327.32 389.955,1327.12 392.107,1326.91 394.259,1326.71 396.411,1326.5 398.563,1326.3 400.715,1326.09 402.868,1325.88 405.02,1325.68 407.172,1325.47 409.324,1325.26 411.476,1325.05 413.629,1324.84 415.781,1324.63 417.933,1324.42 420.085,1324.21 422.237,1324 424.39,1323.79 426.542,1323.58 428.694,1323.37 430.846,1323.16 432.998,1322.94 435.151,1322.73 437.303,1322.52 439.455,1322.3 441.607,1322.09 443.759,1321.87 445.912,1321.66 448.064,1321.44 450.216,1321.23 452.368,1321.01 454.52,1320.79 456.673,1320.57 458.825,1320.36 460.977,1320.14 463.129,1319.92 465.281,1319.7 467.434,1319.48 469.586,1319.26 471.738,1319.04 473.89,1318.82 476.042,1318.6 478.194,1318.38 480.347,1318.15 482.499,1317.93 484.651,1317.71 486.803,1317.48 488.955,1317.26 491.108,1317.03 493.26,1316.81 495.412,1316.58 497.564,1316.36 499.716,1316.13 501.869,1315.9 504.021,1315.68 506.173,1315.45 508.325,1315.22 510.477,1314.99 512.63,1314.76 514.782,1314.53 516.934,1314.3 519.086,1314.07 521.238,1313.84 523.391,1313.61 525.543,1313.38 527.695,1313.15 529.847,1312.91 531.999,1312.68 534.152,1312.45 536.304,1312.21 538.456,1311.98 540.608,1311.74 542.76,1311.51 544.913,1311.27 547.065,1311.03 549.217,1310.8 551.369,1310.56 553.521,1310.32 555.673,1310.08 557.826,1309.84 559.978,1309.6 562.13,1309.36 564.282,1309.12 566.434,1308.88 568.587,1308.64 570.739,1308.4 572.891,1308.16 575.043,1307.91 577.195,1307.67 579.348,1307.43 581.5,1307.18 583.652,1306.94 585.804,1306.69 587.956,1306.45 590.109,1306.2 592.261,1305.95 594.413,1305.71 596.565,1305.46 598.717,1305.21 600.87,1304.96 603.022,1304.71 605.174,1304.46 607.326,1304.21 609.478,1303.96 611.631,1303.71 613.783,1303.46 615.935,1303.21 618.087,1302.95 620.239,1302.7 622.392,1302.45 624.544,1302.19 626.696,1301.94 628.848,1301.68 631,1301.43 633.152,1301.17 635.305,1300.91 637.457,1300.66 639.609,1300.4 641.761,1300.14 643.913,1299.88 646.066,1299.62 648.218,1299.36 650.37,1299.1 652.522,1298.84 654.674,1298.58 656.827,1298.32 658.979,1298.05 661.131,1297.79 663.283,1297.53 665.435,1297.26 667.588,1297 669.74,1296.73 671.892,1296.47 674.044,1296.2 676.196,1295.94 678.349,1295.67 680.501,1295.4 682.653,1295.13 684.805,1294.86 686.957,1294.59 689.11,1294.32 691.262,1294.05 693.414,1293.78 695.566,1293.51 697.718,1293.24 699.871,1292.96 702.023,1292.69 704.175,1292.42 706.327,1292.14 708.479,1291.87 710.631,1291.59 712.784,1291.32 714.936,1291.04 717.088,1290.76 719.24,1290.49 721.392,1290.21 723.545,1289.93 725.697,1289.65 727.849,1289.37 730.001,1289.09 732.153,1288.81 734.306,1288.53 736.458,1288.24 738.61,1287.96 740.762,1287.68 742.914,1287.39 745.067,1287.11 747.219,1286.82 749.371,1286.54 751.523,1286.25 753.675,1285.97 755.828,1285.68 757.98,1285.39 760.132,1285.1 762.284,1284.81 764.436,1284.52 766.589,1284.23 768.741,1283.94 770.893,1283.65 773.045,1283.36 775.197,1283.07 777.35,1282.77 779.502,1282.48 781.654,1282.19 783.806,1281.89 785.958,1281.6 788.11,1281.3 790.263,1281 792.415,1280.71 794.567,1280.41 796.719,1280.11 798.871,1279.81 801.024,1279.51 803.176,1279.21 805.328,1278.91 807.48,1278.61 809.632,1278.31 811.785,1278 813.937,1277.7 816.089,1277.4 818.241,1277.09 820.393,1276.79 822.546,1276.48 824.698,1276.17 826.85,1275.87 829.002,1275.56 831.154,1275.25 833.307,1274.94 835.459,1274.63 837.611,1274.32 839.763,1274.01 841.915,1273.7 844.068,1273.39 846.22,1273.08 848.372,1272.76 850.524,1272.45 852.676,1272.14 854.829,1271.82 856.981,1271.51 859.133,1271.19 861.285,1270.87 863.437,1270.55 865.589,1270.24 867.742,1269.92 869.894,1269.6 872.046,1269.28 874.198,1268.96 876.35,1268.64 878.503,1268.31 880.655,1267.99 882.807,1267.67 884.959,1267.34 887.111,1267.02 889.264,1266.69 891.416,1266.37 893.568,1266.04 895.72,1265.71 897.872,1265.39 900.025,1265.06 902.177,1264.73 904.329,1264.4 906.481,1264.07 908.633,1263.74 910.786,1263.4 912.938,1263.07 915.09,1262.74 917.242,1262.41 919.394,1262.07 921.547,1261.74 923.699,1261.4 925.851,1261.06 928.003,1260.73 930.155,1260.39 932.308,1260.05 934.46,1259.71 936.612,1259.37 938.764,1259.03 940.916,1258.69 943.068,1258.35 945.221,1258 947.373,1257.66 949.525,1257.32 951.677,1256.97 953.829,1256.63 955.982,1256.28 958.134,1255.93 960.286,1255.59 962.438,1255.24 964.59,1254.89 966.743,1254.54 968.895,1254.19 971.047,1253.84 973.199,1253.49 975.351,1253.13 977.504,1252.78 979.656,1252.43 981.808,1252.07 983.96,1251.72 986.112,1251.36 988.265,1251 990.417,1250.65 992.569,1250.29 994.721,1249.93 996.873,1249.57 999.026,1249.21 1001.18,1248.85 1003.33,1248.49 1005.48,1248.13 1007.63,1247.76 1009.79,1247.4 1011.94,1247.03 1014.09,1246.67 1016.24,1246.3 1018.4,1245.94 1020.55,1245.57 1022.7,1245.2 1024.85,1244.83 1027,1244.46 1029.16,1244.09 1031.31,1243.72 1033.46,1243.35 1035.61,1242.97 1037.77,1242.6 1039.92,1242.23 1042.07,1241.85 1044.22,1241.48 1046.37,1241.1 1048.53,1240.72 1050.68,1240.34 1052.83,1239.97 1054.98,1239.59 1057.13,1239.21 1059.29,1238.83 1061.44,1238.44 1063.59,1238.06 1065.74,1237.68 1067.9,1237.29 1070.05,1236.91 1072.2,1236.52 1074.35,1236.14 1076.5,1235.75 1078.66,1235.36 1080.81,1234.97 1082.96,1234.58 1085.11,1234.19 1087.27,1233.8 1089.42,1233.41 1091.57,1233.02 1093.72,1232.62 1095.87,1232.23 1098.03,1231.83 1100.18,1231.44 1102.33,1231.04 1104.48,1230.65 1106.64,1230.25 1108.79,1229.85 1110.94,1229.45 1113.09,1229.05 1115.24,1228.65 1117.4,1228.24 1119.55,1227.84 1121.7,1227.44 1123.85,1227.03 1126.01,1226.63 1128.16,1226.22 1130.31,1225.81 1132.46,1225.41 1134.61,1225 1136.77,1224.59 1138.92,1224.18 1141.07,1223.77 1143.22,1223.35 1145.37,1222.94 1147.53,1222.53 1149.68,1222.11 1151.83,1221.7 1153.98,1221.28 1156.14,1220.87 1158.29,1220.45 1160.44,1220.03 1162.59,1219.61 1164.74,1219.19 1166.9,1218.77 1169.05,1218.35 1171.2,1217.92 1173.35,1217.5 1175.51,1217.08 1177.66,1216.65 1179.81,1216.22 1181.96,1215.8 1184.11,1215.37 1186.27,1214.94 1188.42,1214.51 1190.57,1214.08 1192.72,1213.65 1194.88,1213.22 1197.03,1212.78 1199.18,1212.35 1201.33,1211.91 1203.48,1211.48 1205.64,1211.04 1207.79,1210.6 1209.94,1210.17 1212.09,1209.73 1214.25,1209.29 1216.4,1208.85 1218.55,1208.4 1220.7,1207.96 1222.85,1207.52 1225.01,1207.07 1227.16,1206.63 1229.31,1206.18 1231.46,1205.73 1233.61,1205.29 1235.77,1204.84 1237.92,1204.39 1240.07,1203.94 1242.22,1203.49 1244.38,1203.03 1246.53,1202.58 1248.68,1202.12 1250.83,1201.67 1252.98,1201.21 1255.14,1200.76 1257.29,1200.3 1259.44,1199.84 1261.59,1199.38 1263.75,1198.92 1265.9,1198.46 1268.05,1197.99 1270.2,1197.53 1272.35,1197.07 1274.51,1196.6 1276.66,1196.13 1278.81,1195.67 1280.96,1195.2 1283.12,1194.73 1285.27,1194.26 1287.42,1193.79 1289.57,1193.32 1291.72,1192.84 1293.88,1192.37 1296.03,1191.89 1298.18,1191.42 1300.33,1190.94 1302.48,1190.46 1304.64,1189.98 1306.79,1189.5 1308.94,1189.02 1311.09,1188.54 1313.25,1188.06 1315.4,1187.58 1317.55,1187.09 1319.7,1186.61 1321.85,1186.12 1324.01,1185.63 1326.16,1185.14 1328.31,1184.66 1330.46,1184.16 1332.62,1183.67 1334.77,1183.18 1336.92,1182.69 1339.07,1182.19 1341.22,1181.7 1343.38,1181.2 1345.53,1180.7 1347.68,1180.21 1349.83,1179.71 1351.99,1179.21 1354.14,1178.71 1356.29,1178.2 1358.44,1177.7 1360.59,1177.2 1362.75,1176.69 1364.9,1176.18 1367.05,1175.68 1369.2,1175.17 1371.36,1174.66 1373.51,1174.15 1375.66,1173.64 1377.81,1173.13 1379.96,1172.61 1382.12,1172.1 1384.27,1171.58 1386.42,1171.07 1388.57,1170.55 1390.72,1170.03 1392.88,1169.51 1395.03,1168.99 1397.18,1168.47 1399.33,1167.94 1401.49,1167.42 1403.64,1166.9 1405.79,1166.37 1407.94,1165.84 1410.09,1165.31 1412.25,1164.79 1414.4,1164.26 1416.55,1163.72 1418.7,1163.19 1420.86,1162.66 1423.01,1162.12 1425.16,1161.59 1427.31,1161.05 1429.46,1160.51 1431.62,1159.98 1433.77,1159.44 1435.92,1158.89 1438.07,1158.35 1440.23,1157.81 1442.38,1157.27 1444.53,1156.72 1446.68,1156.17 1448.83,1155.63 1450.99,1155.08 1453.14,1154.53 1455.29,1153.98 1457.44,1153.43 1459.6,1152.87 1461.75,1152.32 1463.9,1151.76 1466.05,1151.21 1468.2,1150.65 1470.36,1150.09 1472.51,1149.53 1474.66,1148.97 1476.81,1148.41 1478.96,1147.85 1481.12,1147.28 1483.27,1146.72 1485.42,1146.15 1487.57,1145.58 1489.73,1145.01 1491.88,1144.44 1494.03,1143.87 1496.18,1143.3 1498.33,1142.73 1500.49,1142.15 1502.64,1141.58 1504.79,1141 1506.94,1140.42 1509.1,1139.85 1511.25,1139.27 1513.4,1138.68 1515.55,1138.1 1517.7,1137.52 1519.86,1136.93 1522.01,1136.35 1524.16,1135.76 1526.31,1135.17 1528.47,1134.58 1530.62,1133.99 1532.77,1133.4 1534.92,1132.81 1537.07,1132.21 1539.23,1131.62 1541.38,1131.02 1543.53,1130.42 1545.68,1129.82 1547.84,1129.22 1549.99,1128.62 1552.14,1128.02 1554.29,1127.42 1556.44,1126.81 1558.6,1126.2 1560.75,1125.6 1562.9,1124.99 1565.05,1124.38 1567.2,1123.77 1569.36,1123.15 1571.51,1122.54 1573.66,1121.93 1575.81,1121.31 1577.97,1120.69 1580.12,1120.07 1582.27,1119.45 1584.42,1118.83 1586.57,1118.21 1588.73,1117.59 1590.88,1116.96 1593.03,1116.34 1595.18,1115.71 1597.34,1115.08 1599.49,1114.45 1601.64,1113.82 1603.79,1113.19 1605.94,1112.56 1608.1,1111.92 1610.25,1111.28 1612.4,1110.65 1614.55,1110.01 1616.71,1109.37 1618.86,1108.73 1621.01,1108.08 1623.16,1107.44 1625.31,1106.8 1627.47,1106.15 1629.62,1105.5 1631.77,1104.85 1633.92,1104.2 1636.08,1103.55 1638.23,1102.9 1640.38,1102.24 1642.53,1101.59 1644.68,1100.93 1646.84,1100.27 1648.99,1099.61 1651.14,1098.95 1653.29,1098.29 1655.44,1097.63 1657.6,1096.96 1659.75,1096.3 1661.9,1095.63 1664.05,1094.96 1666.21,1094.29 1668.36,1093.62 1670.51,1092.95 1672.66,1092.27 1674.81,1091.6 1676.97,1090.92 1679.12,1090.24 1681.27,1089.56 1683.42,1088.88 1685.58,1088.2 1687.73,1087.52 1689.88,1086.83 1692.03,1086.14 1694.18,1085.46 1696.34,1084.77 1698.49,1084.08 1700.64,1083.39 1702.79,1082.69 1704.95,1082 1707.1,1081.3 1709.25,1080.6 1711.4,1079.91 1713.55,1079.21 1715.71,1078.5 1717.86,1077.8 1720.01,1077.1 1722.16,1076.39 1724.32,1075.68 1726.47,1074.97 1728.62,1074.26 1730.77,1073.55 1732.92,1072.84 1735.08,1072.12 1737.23,1071.41 1739.38,1070.69 1741.53,1069.97 1743.68,1069.25 1745.84,1068.53 1747.99,1067.81 1750.14,1067.08 1752.29,1066.36 1754.45,1065.63 1756.6,1064.9 1758.75,1064.17 1760.9,1063.44 1763.05,1062.71 1765.21,1061.97 1767.36,1061.24 1769.51,1060.5 1771.66,1059.76 1773.82,1059.02 1775.97,1058.28 1778.12,1057.53 1780.27,1056.79 1782.42,1056.04 1784.58,1055.29 1786.73,1054.54 1788.88,1053.79 1791.03,1053.04 1793.19,1052.28 1795.34,1051.53 1797.49,1050.77 1799.64,1050.01 1801.79,1049.25 1803.95,1048.49 1806.1,1047.73 1808.25,1046.96 1810.4,1046.2 1812.56,1045.43 1814.71,1044.66 1816.86,1043.89 1819.01,1043.12 1821.16,1042.34 1823.32,1041.57 1825.47,1040.79 1827.62,1040.01 1829.77,1039.23 1831.92,1038.45 1834.08,1037.67 1836.23,1036.88 1838.38,1036.09 1840.53,1035.31 1842.69,1034.52 1844.84,1033.73 1846.99,1032.93 1849.14,1032.14 1851.29,1031.34 1853.45,1030.54 1855.6,1029.75 1857.75,1028.94 1859.9,1028.14 1862.06,1027.34 1864.21,1026.53 1866.36,1025.73 1868.51,1024.92 1870.66,1024.11 1872.82,1023.29 1874.97,1022.48 1877.12,1021.66 1879.27,1020.85 1881.43,1020.03 1883.58,1019.21 1885.73,1018.39 1887.88,1017.56 1890.03,1016.74 1892.19,1015.91 1894.34,1015.08 1896.49,1014.25 1898.64,1013.42 1900.8,1012.59 1902.95,1011.75 1905.1,1010.92 1907.25,1010.08 1909.4,1009.24 1911.56,1008.39 1913.71,1007.55 1915.86,1006.71 1918.01,1005.86 1920.16,1005.01 1922.32,1004.16 1924.47,1003.31 1926.62,1002.45 1928.77,1001.6 1930.93,1000.74 1933.08,999.883 1935.23,999.022 1937.38,998.16 1939.53,997.295 1941.69,996.43 1943.84,995.562 1945.99,994.693 1948.14,993.822 1950.3,992.949 1952.45,992.075 1954.6,991.198 1956.75,990.32 1958.9,989.44 1961.06,988.559 1963.21,987.676 1965.36,986.79 1967.51,985.904 1969.67,985.015 1971.82,984.124 1973.97,983.232 1976.12,982.338 1978.27,981.443 1980.43,980.545 1982.58,979.646 1984.73,978.744 1986.88,977.841 1989.04,976.937 1991.19,976.03 1993.34,975.122 1995.49,974.211 1997.64,973.299 1999.8,972.385 2001.95,971.47 2004.1,970.552 2006.25,969.633 2008.4,968.711 2010.56,967.788 2012.71,966.863 2014.86,965.937 2017.01,965.008 2019.17,964.077 2021.32,963.145 2023.47,962.211 2025.62,961.275 2027.77,960.337 2029.93,959.397 2032.08,958.455 2034.23,957.511 2036.38,956.566 2038.54,955.619 2040.69,954.669 2042.84,953.718 2044.99,952.765 2047.14,951.81 2049.3,950.853 2051.45,949.894 2053.6,948.933 2055.75,947.971 2057.91,947.006 2060.06,946.039 2062.21,945.071 2064.36,944.1 2066.51,943.128 2068.67,942.154 2070.82,941.177 2072.97,940.199 2075.12,939.219 2077.28,938.237 2079.43,937.253 2081.58,936.266 2083.73,935.278 2085.88,934.288 2088.04,933.296 2090.19,932.302 2092.34,931.306 2094.49,930.308 2096.64,929.308 2098.8,928.306 2100.95,927.302 2103.1,926.296 2105.25,925.288 2107.41,924.278 2109.56,923.266 2111.71,922.251 2113.86,921.235 2116.01,920.217 2118.17,919.197 2120.32,918.175 2122.47,917.15 2124.62,916.124 2126.78,915.095 2128.93,914.065 2131.08,913.032 2133.23,911.998 2135.38,910.961 2137.54,909.922 2139.69,908.881 2141.84,907.838 2143.99,906.793 2146.15,905.746 2148.3,904.697 2150.45,903.645 2152.6,902.592 2154.75,901.536 2156.91,900.479 2159.06,899.419 2161.21,898.357 2163.36,897.293 2165.51,896.227 2167.67,895.158 2169.82,894.088 2171.97,893.015 2174.12,891.94 2176.28,890.863 2178.43,889.784 2180.58,888.703 2182.73,887.62 2184.88,886.534 2187.04,885.446 2189.19,884.356 2191.34,883.264 2193.49,882.17 2195.65,881.073 2197.8,879.975 2199.95,878.874 2202.1,877.771 2204.25,876.665 2206.41,875.558 2208.56,874.448 2210.71,873.336 2212.86,872.222 2215.02,871.105 2217.17,869.987 2219.32,868.866 2221.47,867.742 2223.62,866.617 2225.78,865.489 2227.93,864.359 2230.08,863.227 2232.23,862.093 2234.39,860.956 2236.54,859.817 2238.69,858.676 2240.84,857.532 2242.99,856.386 2245.15,855.238 2247.3,854.087 2249.45,852.935 2251.6,851.779 2253.75,850.622 2255.91,849.462 2258.06,848.3 2260.21,847.136 2262.36,845.969 2264.52,844.8 2266.67,843.628 2268.82,842.455 2270.97,841.279 2273.12,840.1 2275.28,838.919 2277.43,837.736 2279.58,836.55 2281.73,835.362 2283.89,834.172 2286.04,832.979 2288.19,831.784 2290.34,830.587 2292.49,829.387 2294.65,828.185 2296.8,826.98 2298.95,825.773 2301.1,824.563 2303.26,823.351 2305.41,822.137 2307.56,820.92 2309.71,819.701 2311.86,818.479 2314.02,817.255 2316.17,816.028 2318.32,814.799 2320.47,813.567 2322.63,812.333 2324.78,811.097 2326.93,809.858 2329.08,808.617 2331.23,807.373 2333.39,806.126 2335.54,804.877 2337.69,803.626 2339.84,802.372 2341.99,801.115 2344.15,799.856 2346.3,798.595 2348.45,797.331 2350.6,796.064 2352.76,794.795 "></polyline>
<path clip-path="url(#clip190)" d="M274.382 477.836 L879.8 477.836 L879.8 166.796 L274.382 166.796  Z" fill="#ffffff" fill-rule="evenodd" fill-opacity="1"></path>
<polyline clip-path="url(#clip190)" style="stroke:#000000; stroke-linecap:round; stroke-linejoin:round; stroke-width:4; stroke-opacity:1; fill:none" points="274.382,477.836 879.8,477.836 879.8,166.796 274.382,166.796 274.382,477.836 "></polyline>
<polyline clip-path="url(#clip190)" style="stroke:#0000ff; stroke-linecap:round; stroke-linejoin:round; stroke-width:4; stroke-opacity:1; fill:none" points="298.271,218.636 441.607,218.636 "></polyline>
<path clip-path="url(#clip190)" d="M491.052 230.985 L491.052 221.703 L483.413 221.703 L483.413 217.86 L495.682 217.86 L495.682 232.698 Q492.973 234.619 489.709 235.615 Q486.445 236.587 482.742 236.587 Q474.64 236.587 470.057 231.865 Q465.497 227.119 465.497 218.67 Q465.497 210.198 470.057 205.476 Q474.64 200.731 482.742 200.731 Q486.121 200.731 489.154 201.564 Q492.209 202.397 494.779 204.018 L494.779 208.995 Q492.186 206.796 489.27 205.684 Q486.353 204.573 483.135 204.573 Q476.793 204.573 473.598 208.115 Q470.427 211.657 470.427 218.67 Q470.427 225.661 473.598 229.203 Q476.793 232.744 483.135 232.744 Q485.612 232.744 487.557 232.328 Q489.501 231.888 491.052 230.985 Z" fill="#000000" fill-rule="nonzero" fill-opacity="1"></path><path clip-path="url(#clip190)" d="M526.214 221.888 L526.214 223.971 L506.631 223.971 Q506.908 228.369 509.269 230.684 Q511.654 232.976 515.89 232.976 Q518.343 232.976 520.635 232.374 Q522.95 231.772 525.218 230.569 L525.218 234.596 Q522.927 235.568 520.519 236.078 Q518.112 236.587 515.635 236.587 Q509.431 236.587 505.797 232.976 Q502.186 229.365 502.186 223.207 Q502.186 216.842 505.612 213.115 Q509.061 209.365 514.894 209.365 Q520.126 209.365 523.158 212.745 Q526.214 216.101 526.214 221.888 M521.955 220.638 Q521.908 217.143 519.987 215.059 Q518.089 212.976 514.941 212.976 Q511.376 212.976 509.223 214.99 Q507.094 217.004 506.769 220.661 L521.955 220.638 Z" fill="#000000" fill-rule="nonzero" fill-opacity="1"></path><path clip-path="url(#clip190)" d="M554.755 220.268 L554.755 235.916 L550.496 235.916 L550.496 220.407 Q550.496 216.726 549.061 214.897 Q547.626 213.069 544.755 213.069 Q541.306 213.069 539.316 215.268 Q537.325 217.467 537.325 221.263 L537.325 235.916 L533.042 235.916 L533.042 209.99 L537.325 209.99 L537.325 214.018 Q538.853 211.68 540.913 210.522 Q542.996 209.365 545.704 209.365 Q550.172 209.365 552.464 212.143 Q554.755 214.897 554.755 220.268 Z" fill="#000000" fill-rule="nonzero" fill-opacity="1"></path><path clip-path="url(#clip190)" d="M585.426 221.888 L585.426 223.971 L565.843 223.971 Q566.121 228.369 568.482 230.684 Q570.866 232.976 575.102 232.976 Q577.556 232.976 579.848 232.374 Q582.163 231.772 584.431 230.569 L584.431 234.596 Q582.139 235.568 579.732 236.078 Q577.325 236.587 574.848 236.587 Q568.644 236.587 565.01 232.976 Q561.399 229.365 561.399 223.207 Q561.399 216.842 564.825 213.115 Q568.274 209.365 574.107 209.365 Q579.339 209.365 582.371 212.745 Q585.426 216.101 585.426 221.888 M581.167 220.638 Q581.121 217.143 579.2 215.059 Q577.301 212.976 574.153 212.976 Q570.589 212.976 568.436 214.99 Q566.306 217.004 565.982 220.661 L581.167 220.638 Z" fill="#000000" fill-rule="nonzero" fill-opacity="1"></path><path clip-path="url(#clip190)" d="M607.44 213.971 Q606.723 213.555 605.866 213.37 Q605.033 213.161 604.014 213.161 Q600.403 213.161 598.459 215.522 Q596.537 217.86 596.537 222.258 L596.537 235.916 L592.255 235.916 L592.255 209.99 L596.537 209.99 L596.537 214.018 Q597.88 211.657 600.033 210.522 Q602.186 209.365 605.264 209.365 Q605.704 209.365 606.237 209.434 Q606.769 209.481 607.417 209.596 L607.44 213.971 Z" fill="#000000" fill-rule="nonzero" fill-opacity="1"></path><path clip-path="url(#clip190)" d="M623.69 222.883 Q618.528 222.883 616.537 224.064 Q614.547 225.244 614.547 228.092 Q614.547 230.36 616.028 231.703 Q617.533 233.022 620.102 233.022 Q623.644 233.022 625.773 230.522 Q627.926 227.999 627.926 223.832 L627.926 222.883 L623.69 222.883 M632.185 221.124 L632.185 235.916 L627.926 235.916 L627.926 231.981 Q626.468 234.342 624.292 235.476 Q622.116 236.587 618.968 236.587 Q614.986 236.587 612.625 234.365 Q610.287 232.119 610.287 228.369 Q610.287 223.994 613.204 221.772 Q616.144 219.55 621.954 219.55 L627.926 219.55 L627.926 219.133 Q627.926 216.194 625.982 214.596 Q624.06 212.976 620.565 212.976 Q618.343 212.976 616.236 213.508 Q614.13 214.041 612.186 215.106 L612.186 211.17 Q614.524 210.268 616.723 209.828 Q618.922 209.365 621.005 209.365 Q626.63 209.365 629.408 212.282 Q632.185 215.198 632.185 221.124 Z" fill="#000000" fill-rule="nonzero" fill-opacity="1"></path><path clip-path="url(#clip190)" d="M640.959 199.897 L645.218 199.897 L645.218 235.916 L640.959 235.916 L640.959 199.897 Z" fill="#000000" fill-rule="nonzero" fill-opacity="1"></path><path clip-path="url(#clip190)" d="M655.218 230.036 L660.102 230.036 L660.102 235.916 L655.218 235.916 L655.218 230.036 M655.218 211.402 L660.102 211.402 L660.102 217.282 L655.218 217.282 L655.218 211.402 Z" fill="#000000" fill-rule="nonzero" fill-opacity="1"></path><path clip-path="url(#clip190)" d="M711.236 204.018 L711.236 208.948 Q708.875 206.749 706.19 205.661 Q703.528 204.573 700.518 204.573 Q694.593 204.573 691.444 208.208 Q688.296 211.819 688.296 218.67 Q688.296 225.499 691.444 229.133 Q694.593 232.744 700.518 232.744 Q703.528 232.744 706.19 231.656 Q708.875 230.569 711.236 228.369 L711.236 233.254 Q708.782 234.92 706.028 235.754 Q703.296 236.587 700.241 236.587 Q692.393 236.587 687.88 231.795 Q683.366 226.981 683.366 218.67 Q683.366 210.337 687.88 205.546 Q692.393 200.731 700.241 200.731 Q703.342 200.731 706.074 201.564 Q708.829 202.374 711.236 204.018 Z" fill="#000000" fill-rule="nonzero" fill-opacity="1"></path><path clip-path="url(#clip190)" d="M733.898 214.388 L763.574 214.388 L763.574 218.277 L733.898 218.277 L733.898 214.388 M733.898 223.832 L763.574 223.832 L763.574 227.768 L733.898 227.768 L733.898 223.832 Z" fill="#000000" fill-rule="nonzero" fill-opacity="1"></path><path clip-path="url(#clip190)" d="M798.735 204.434 Q795.124 204.434 793.296 207.999 Q791.49 211.541 791.49 218.67 Q791.49 225.777 793.296 229.342 Q795.124 232.883 798.735 232.883 Q802.37 232.883 804.175 229.342 Q806.004 225.777 806.004 218.67 Q806.004 211.541 804.175 207.999 Q802.37 204.434 798.735 204.434 M798.735 200.731 Q804.546 200.731 807.601 205.337 Q810.68 209.92 810.68 218.67 Q810.68 227.397 807.601 232.004 Q804.546 236.587 798.735 236.587 Q792.925 236.587 789.847 232.004 Q786.791 227.397 786.791 218.67 Q786.791 209.92 789.847 205.337 Q792.925 200.731 798.735 200.731 Z" fill="#000000" fill-rule="nonzero" fill-opacity="1"></path><path clip-path="url(#clip190)" d="M818.897 230.036 L823.782 230.036 L823.782 235.916 L818.897 235.916 L818.897 230.036 Z" fill="#000000" fill-rule="nonzero" fill-opacity="1"></path><path clip-path="url(#clip190)" d="M834.013 201.356 L852.369 201.356 L852.369 205.291 L838.295 205.291 L838.295 213.763 Q839.314 213.416 840.332 213.254 Q841.351 213.069 842.37 213.069 Q848.157 213.069 851.536 216.24 Q854.916 219.411 854.916 224.828 Q854.916 230.406 851.444 233.508 Q847.971 236.587 841.652 236.587 Q839.476 236.587 837.208 236.217 Q834.962 235.846 832.555 235.106 L832.555 230.406 Q834.638 231.541 836.86 232.096 Q839.082 232.652 841.559 232.652 Q845.564 232.652 847.902 230.545 Q850.24 228.439 850.24 224.828 Q850.24 221.217 847.902 219.11 Q845.564 217.004 841.559 217.004 Q839.684 217.004 837.809 217.42 Q835.958 217.837 834.013 218.717 L834.013 201.356 Z" fill="#000000" fill-rule="nonzero" fill-opacity="1"></path><polyline clip-path="url(#clip190)" style="stroke:#0000ff; stroke-linecap:round; stroke-linejoin:round; stroke-width:4; stroke-opacity:1; fill:none" points="298.271,270.476 441.607,270.476 "></polyline>
<path clip-path="url(#clip190)" d="M491.052 282.825 L491.052 273.543 L483.413 273.543 L483.413 269.7 L495.682 269.7 L495.682 284.538 Q492.973 286.459 489.709 287.455 Q486.445 288.427 482.742 288.427 Q474.64 288.427 470.057 283.705 Q465.497 278.959 465.497 270.51 Q465.497 262.038 470.057 257.316 Q474.64 252.571 482.742 252.571 Q486.121 252.571 489.154 253.404 Q492.209 254.237 494.779 255.858 L494.779 260.835 Q492.186 258.636 489.27 257.524 Q486.353 256.413 483.135 256.413 Q476.793 256.413 473.598 259.955 Q470.427 263.497 470.427 270.51 Q470.427 277.501 473.598 281.043 Q476.793 284.584 483.135 284.584 Q485.612 284.584 487.557 284.168 Q489.501 283.728 491.052 282.825 Z" fill="#000000" fill-rule="nonzero" fill-opacity="1"></path><path clip-path="url(#clip190)" d="M526.214 273.728 L526.214 275.811 L506.631 275.811 Q506.908 280.209 509.269 282.524 Q511.654 284.816 515.89 284.816 Q518.343 284.816 520.635 284.214 Q522.95 283.612 525.218 282.409 L525.218 286.436 Q522.927 287.408 520.519 287.918 Q518.112 288.427 515.635 288.427 Q509.431 288.427 505.797 284.816 Q502.186 281.205 502.186 275.047 Q502.186 268.682 505.612 264.955 Q509.061 261.205 514.894 261.205 Q520.126 261.205 523.158 264.585 Q526.214 267.941 526.214 273.728 M521.955 272.478 Q521.908 268.983 519.987 266.899 Q518.089 264.816 514.941 264.816 Q511.376 264.816 509.223 266.83 Q507.094 268.844 506.769 272.501 L521.955 272.478 Z" fill="#000000" fill-rule="nonzero" fill-opacity="1"></path><path clip-path="url(#clip190)" d="M554.755 272.108 L554.755 287.756 L550.496 287.756 L550.496 272.247 Q550.496 268.566 549.061 266.737 Q547.626 264.909 544.755 264.909 Q541.306 264.909 539.316 267.108 Q537.325 269.307 537.325 273.103 L537.325 287.756 L533.042 287.756 L533.042 261.83 L537.325 261.83 L537.325 265.858 Q538.853 263.52 540.913 262.362 Q542.996 261.205 545.704 261.205 Q550.172 261.205 552.464 263.983 Q554.755 266.737 554.755 272.108 Z" fill="#000000" fill-rule="nonzero" fill-opacity="1"></path><path clip-path="url(#clip190)" d="M585.426 273.728 L585.426 275.811 L565.843 275.811 Q566.121 280.209 568.482 282.524 Q570.866 284.816 575.102 284.816 Q577.556 284.816 579.848 284.214 Q582.163 283.612 584.431 282.409 L584.431 286.436 Q582.139 287.408 579.732 287.918 Q577.325 288.427 574.848 288.427 Q568.644 288.427 565.01 284.816 Q561.399 281.205 561.399 275.047 Q561.399 268.682 564.825 264.955 Q568.274 261.205 574.107 261.205 Q579.339 261.205 582.371 264.585 Q585.426 267.941 585.426 273.728 M581.167 272.478 Q581.121 268.983 579.2 266.899 Q577.301 264.816 574.153 264.816 Q570.589 264.816 568.436 266.83 Q566.306 268.844 565.982 272.501 L581.167 272.478 Z" fill="#000000" fill-rule="nonzero" fill-opacity="1"></path><path clip-path="url(#clip190)" d="M607.44 265.811 Q606.723 265.395 605.866 265.21 Q605.033 265.001 604.014 265.001 Q600.403 265.001 598.459 267.362 Q596.537 269.7 596.537 274.098 L596.537 287.756 L592.255 287.756 L592.255 261.83 L596.537 261.83 L596.537 265.858 Q597.88 263.497 600.033 262.362 Q602.186 261.205 605.264 261.205 Q605.704 261.205 606.237 261.274 Q606.769 261.321 607.417 261.436 L607.44 265.811 Z" fill="#000000" fill-rule="nonzero" fill-opacity="1"></path><path clip-path="url(#clip190)" d="M623.69 274.723 Q618.528 274.723 616.537 275.904 Q614.547 277.084 614.547 279.932 Q614.547 282.2 616.028 283.543 Q617.533 284.862 620.102 284.862 Q623.644 284.862 625.773 282.362 Q627.926 279.839 627.926 275.672 L627.926 274.723 L623.69 274.723 M632.185 272.964 L632.185 287.756 L627.926 287.756 L627.926 283.821 Q626.468 286.182 624.292 287.316 Q622.116 288.427 618.968 288.427 Q614.986 288.427 612.625 286.205 Q610.287 283.959 610.287 280.209 Q610.287 275.834 613.204 273.612 Q616.144 271.39 621.954 271.39 L627.926 271.39 L627.926 270.973 Q627.926 268.034 625.982 266.436 Q624.06 264.816 620.565 264.816 Q618.343 264.816 616.236 265.348 Q614.13 265.881 612.186 266.946 L612.186 263.01 Q614.524 262.108 616.723 261.668 Q618.922 261.205 621.005 261.205 Q626.63 261.205 629.408 264.122 Q632.185 267.038 632.185 272.964 Z" fill="#000000" fill-rule="nonzero" fill-opacity="1"></path><path clip-path="url(#clip190)" d="M640.959 251.737 L645.218 251.737 L645.218 287.756 L640.959 287.756 L640.959 251.737 Z" fill="#000000" fill-rule="nonzero" fill-opacity="1"></path><path clip-path="url(#clip190)" d="M655.218 281.876 L660.102 281.876 L660.102 287.756 L655.218 287.756 L655.218 281.876 M655.218 263.242 L660.102 263.242 L660.102 269.122 L655.218 269.122 L655.218 263.242 Z" fill="#000000" fill-rule="nonzero" fill-opacity="1"></path><path clip-path="url(#clip190)" d="M711.236 255.858 L711.236 260.788 Q708.875 258.589 706.19 257.501 Q703.528 256.413 700.518 256.413 Q694.593 256.413 691.444 260.048 Q688.296 263.659 688.296 270.51 Q688.296 277.339 691.444 280.973 Q694.593 284.584 700.518 284.584 Q703.528 284.584 706.19 283.496 Q708.875 282.409 711.236 280.209 L711.236 285.094 Q708.782 286.76 706.028 287.594 Q703.296 288.427 700.241 288.427 Q692.393 288.427 687.88 283.635 Q683.366 278.821 683.366 270.51 Q683.366 262.177 687.88 257.386 Q692.393 252.571 700.241 252.571 Q703.342 252.571 706.074 253.404 Q708.829 254.214 711.236 255.858 Z" fill="#000000" fill-rule="nonzero" fill-opacity="1"></path><path clip-path="url(#clip190)" d="M733.898 266.228 L763.574 266.228 L763.574 270.117 L733.898 270.117 L733.898 266.228 M733.898 275.672 L763.574 275.672 L763.574 279.608 L733.898 279.608 L733.898 275.672 Z" fill="#000000" fill-rule="nonzero" fill-opacity="1"></path><path clip-path="url(#clip190)" d="M789.546 283.821 L797.185 283.821 L797.185 257.455 L788.874 259.122 L788.874 254.862 L797.138 253.196 L801.814 253.196 L801.814 283.821 L809.453 283.821 L809.453 287.756 L789.546 287.756 L789.546 283.821 Z" fill="#000000" fill-rule="nonzero" fill-opacity="1"></path><path clip-path="url(#clip190)" d="M818.897 281.876 L823.782 281.876 L823.782 287.756 L818.897 287.756 L818.897 281.876 Z" fill="#000000" fill-rule="nonzero" fill-opacity="1"></path><path clip-path="url(#clip190)" d="M843.967 256.274 Q840.356 256.274 838.527 259.839 Q836.721 263.381 836.721 270.51 Q836.721 277.617 838.527 281.182 Q840.356 284.723 843.967 284.723 Q847.601 284.723 849.407 281.182 Q851.235 277.617 851.235 270.51 Q851.235 263.381 849.407 259.839 Q847.601 256.274 843.967 256.274 M843.967 252.571 Q849.777 252.571 852.832 257.177 Q855.911 261.76 855.911 270.51 Q855.911 279.237 852.832 283.844 Q849.777 288.427 843.967 288.427 Q838.157 288.427 835.078 283.844 Q832.022 279.237 832.022 270.51 Q832.022 261.76 835.078 257.177 Q838.157 252.571 843.967 252.571 Z" fill="#000000" fill-rule="nonzero" fill-opacity="1"></path><polyline clip-path="url(#clip190)" style="stroke:#0000ff; stroke-linecap:round; stroke-linejoin:round; stroke-width:4; stroke-opacity:1; fill:none" points="298.271,322.316 441.607,322.316 "></polyline>
<path clip-path="url(#clip190)" d="M491.052 334.665 L491.052 325.383 L483.413 325.383 L483.413 321.54 L495.682 321.54 L495.682 336.378 Q492.973 338.299 489.709 339.295 Q486.445 340.267 482.742 340.267 Q474.64 340.267 470.057 335.545 Q465.497 330.799 465.497 322.35 Q465.497 313.878 470.057 309.156 Q474.64 304.411 482.742 304.411 Q486.121 304.411 489.154 305.244 Q492.209 306.077 494.779 307.698 L494.779 312.675 Q492.186 310.476 489.27 309.364 Q486.353 308.253 483.135 308.253 Q476.793 308.253 473.598 311.795 Q470.427 315.337 470.427 322.35 Q470.427 329.341 473.598 332.883 Q476.793 336.424 483.135 336.424 Q485.612 336.424 487.557 336.008 Q489.501 335.568 491.052 334.665 Z" fill="#000000" fill-rule="nonzero" fill-opacity="1"></path><path clip-path="url(#clip190)" d="M526.214 325.568 L526.214 327.651 L506.631 327.651 Q506.908 332.049 509.269 334.364 Q511.654 336.656 515.89 336.656 Q518.343 336.656 520.635 336.054 Q522.95 335.452 525.218 334.249 L525.218 338.276 Q522.927 339.248 520.519 339.758 Q518.112 340.267 515.635 340.267 Q509.431 340.267 505.797 336.656 Q502.186 333.045 502.186 326.887 Q502.186 320.522 505.612 316.795 Q509.061 313.045 514.894 313.045 Q520.126 313.045 523.158 316.425 Q526.214 319.781 526.214 325.568 M521.955 324.318 Q521.908 320.823 519.987 318.739 Q518.089 316.656 514.941 316.656 Q511.376 316.656 509.223 318.67 Q507.094 320.684 506.769 324.341 L521.955 324.318 Z" fill="#000000" fill-rule="nonzero" fill-opacity="1"></path><path clip-path="url(#clip190)" d="M554.755 323.948 L554.755 339.596 L550.496 339.596 L550.496 324.087 Q550.496 320.406 549.061 318.577 Q547.626 316.749 544.755 316.749 Q541.306 316.749 539.316 318.948 Q537.325 321.147 537.325 324.943 L537.325 339.596 L533.042 339.596 L533.042 313.67 L537.325 313.67 L537.325 317.698 Q538.853 315.36 540.913 314.202 Q542.996 313.045 545.704 313.045 Q550.172 313.045 552.464 315.823 Q554.755 318.577 554.755 323.948 Z" fill="#000000" fill-rule="nonzero" fill-opacity="1"></path><path clip-path="url(#clip190)" d="M585.426 325.568 L585.426 327.651 L565.843 327.651 Q566.121 332.049 568.482 334.364 Q570.866 336.656 575.102 336.656 Q577.556 336.656 579.848 336.054 Q582.163 335.452 584.431 334.249 L584.431 338.276 Q582.139 339.248 579.732 339.758 Q577.325 340.267 574.848 340.267 Q568.644 340.267 565.01 336.656 Q561.399 333.045 561.399 326.887 Q561.399 320.522 564.825 316.795 Q568.274 313.045 574.107 313.045 Q579.339 313.045 582.371 316.425 Q585.426 319.781 585.426 325.568 M581.167 324.318 Q581.121 320.823 579.2 318.739 Q577.301 316.656 574.153 316.656 Q570.589 316.656 568.436 318.67 Q566.306 320.684 565.982 324.341 L581.167 324.318 Z" fill="#000000" fill-rule="nonzero" fill-opacity="1"></path><path clip-path="url(#clip190)" d="M607.44 317.651 Q606.723 317.235 605.866 317.05 Q605.033 316.841 604.014 316.841 Q600.403 316.841 598.459 319.202 Q596.537 321.54 596.537 325.938 L596.537 339.596 L592.255 339.596 L592.255 313.67 L596.537 313.67 L596.537 317.698 Q597.88 315.337 600.033 314.202 Q602.186 313.045 605.264 313.045 Q605.704 313.045 606.237 313.114 Q606.769 313.161 607.417 313.276 L607.44 317.651 Z" fill="#000000" fill-rule="nonzero" fill-opacity="1"></path><path clip-path="url(#clip190)" d="M623.69 326.563 Q618.528 326.563 616.537 327.744 Q614.547 328.924 614.547 331.772 Q614.547 334.04 616.028 335.383 Q617.533 336.702 620.102 336.702 Q623.644 336.702 625.773 334.202 Q627.926 331.679 627.926 327.512 L627.926 326.563 L623.69 326.563 M632.185 324.804 L632.185 339.596 L627.926 339.596 L627.926 335.661 Q626.468 338.022 624.292 339.156 Q622.116 340.267 618.968 340.267 Q614.986 340.267 612.625 338.045 Q610.287 335.799 610.287 332.049 Q610.287 327.674 613.204 325.452 Q616.144 323.23 621.954 323.23 L627.926 323.23 L627.926 322.813 Q627.926 319.874 625.982 318.276 Q624.06 316.656 620.565 316.656 Q618.343 316.656 616.236 317.188 Q614.13 317.721 612.186 318.786 L612.186 314.85 Q614.524 313.948 616.723 313.508 Q618.922 313.045 621.005 313.045 Q626.63 313.045 629.408 315.962 Q632.185 318.878 632.185 324.804 Z" fill="#000000" fill-rule="nonzero" fill-opacity="1"></path><path clip-path="url(#clip190)" d="M640.959 303.577 L645.218 303.577 L645.218 339.596 L640.959 339.596 L640.959 303.577 Z" fill="#000000" fill-rule="nonzero" fill-opacity="1"></path><path clip-path="url(#clip190)" d="M655.218 333.716 L660.102 333.716 L660.102 339.596 L655.218 339.596 L655.218 333.716 M655.218 315.082 L660.102 315.082 L660.102 320.962 L655.218 320.962 L655.218 315.082 Z" fill="#000000" fill-rule="nonzero" fill-opacity="1"></path><path clip-path="url(#clip190)" d="M711.236 307.698 L711.236 312.628 Q708.875 310.429 706.19 309.341 Q703.528 308.253 700.518 308.253 Q694.593 308.253 691.444 311.888 Q688.296 315.499 688.296 322.35 Q688.296 329.179 691.444 332.813 Q694.593 336.424 700.518 336.424 Q703.528 336.424 706.19 335.336 Q708.875 334.249 711.236 332.049 L711.236 336.934 Q708.782 338.6 706.028 339.434 Q703.296 340.267 700.241 340.267 Q692.393 340.267 687.88 335.475 Q683.366 330.661 683.366 322.35 Q683.366 314.017 687.88 309.226 Q692.393 304.411 700.241 304.411 Q703.342 304.411 706.074 305.244 Q708.829 306.054 711.236 307.698 Z" fill="#000000" fill-rule="nonzero" fill-opacity="1"></path><path clip-path="url(#clip190)" d="M733.898 318.068 L763.574 318.068 L763.574 321.957 L733.898 321.957 L733.898 318.068 M733.898 327.512 L763.574 327.512 L763.574 331.448 L733.898 331.448 L733.898 327.512 Z" fill="#000000" fill-rule="nonzero" fill-opacity="1"></path><path clip-path="url(#clip190)" d="M789.546 335.661 L797.185 335.661 L797.185 309.295 L788.874 310.962 L788.874 306.702 L797.138 305.036 L801.814 305.036 L801.814 335.661 L809.453 335.661 L809.453 339.596 L789.546 339.596 L789.546 335.661 Z" fill="#000000" fill-rule="nonzero" fill-opacity="1"></path><path clip-path="url(#clip190)" d="M818.897 333.716 L823.782 333.716 L823.782 339.596 L818.897 339.596 L818.897 333.716 Z" fill="#000000" fill-rule="nonzero" fill-opacity="1"></path><path clip-path="url(#clip190)" d="M834.013 305.036 L852.369 305.036 L852.369 308.971 L838.295 308.971 L838.295 317.443 Q839.314 317.096 840.332 316.934 Q841.351 316.749 842.37 316.749 Q848.157 316.749 851.536 319.92 Q854.916 323.091 854.916 328.508 Q854.916 334.086 851.444 337.188 Q847.971 340.267 841.652 340.267 Q839.476 340.267 837.208 339.897 Q834.962 339.526 832.555 338.786 L832.555 334.086 Q834.638 335.221 836.86 335.776 Q839.082 336.332 841.559 336.332 Q845.564 336.332 847.902 334.225 Q850.24 332.119 850.24 328.508 Q850.24 324.897 847.902 322.79 Q845.564 320.684 841.559 320.684 Q839.684 320.684 837.809 321.1 Q835.958 321.517 834.013 322.397 L834.013 305.036 Z" fill="#000000" fill-rule="nonzero" fill-opacity="1"></path><polyline clip-path="url(#clip190)" style="stroke:#0000ff; stroke-linecap:round; stroke-linejoin:round; stroke-width:4; stroke-opacity:1; fill:none" points="298.271,374.156 441.607,374.156 "></polyline>
<path clip-path="url(#clip190)" d="M491.052 386.505 L491.052 377.223 L483.413 377.223 L483.413 373.38 L495.682 373.38 L495.682 388.218 Q492.973 390.139 489.709 391.135 Q486.445 392.107 482.742 392.107 Q474.64 392.107 470.057 387.385 Q465.497 382.639 465.497 374.19 Q465.497 365.718 470.057 360.996 Q474.64 356.251 482.742 356.251 Q486.121 356.251 489.154 357.084 Q492.209 357.917 494.779 359.538 L494.779 364.515 Q492.186 362.316 489.27 361.204 Q486.353 360.093 483.135 360.093 Q476.793 360.093 473.598 363.635 Q470.427 367.177 470.427 374.19 Q470.427 381.181 473.598 384.723 Q476.793 388.264 483.135 388.264 Q485.612 388.264 487.557 387.848 Q489.501 387.408 491.052 386.505 Z" fill="#000000" fill-rule="nonzero" fill-opacity="1"></path><path clip-path="url(#clip190)" d="M526.214 377.408 L526.214 379.491 L506.631 379.491 Q506.908 383.889 509.269 386.204 Q511.654 388.496 515.89 388.496 Q518.343 388.496 520.635 387.894 Q522.95 387.292 525.218 386.089 L525.218 390.116 Q522.927 391.088 520.519 391.598 Q518.112 392.107 515.635 392.107 Q509.431 392.107 505.797 388.496 Q502.186 384.885 502.186 378.727 Q502.186 372.362 505.612 368.635 Q509.061 364.885 514.894 364.885 Q520.126 364.885 523.158 368.265 Q526.214 371.621 526.214 377.408 M521.955 376.158 Q521.908 372.663 519.987 370.579 Q518.089 368.496 514.941 368.496 Q511.376 368.496 509.223 370.51 Q507.094 372.524 506.769 376.181 L521.955 376.158 Z" fill="#000000" fill-rule="nonzero" fill-opacity="1"></path><path clip-path="url(#clip190)" d="M554.755 375.788 L554.755 391.436 L550.496 391.436 L550.496 375.927 Q550.496 372.246 549.061 370.417 Q547.626 368.589 544.755 368.589 Q541.306 368.589 539.316 370.788 Q537.325 372.987 537.325 376.783 L537.325 391.436 L533.042 391.436 L533.042 365.51 L537.325 365.51 L537.325 369.538 Q538.853 367.2 540.913 366.042 Q542.996 364.885 545.704 364.885 Q550.172 364.885 552.464 367.663 Q554.755 370.417 554.755 375.788 Z" fill="#000000" fill-rule="nonzero" fill-opacity="1"></path><path clip-path="url(#clip190)" d="M585.426 377.408 L585.426 379.491 L565.843 379.491 Q566.121 383.889 568.482 386.204 Q570.866 388.496 575.102 388.496 Q577.556 388.496 579.848 387.894 Q582.163 387.292 584.431 386.089 L584.431 390.116 Q582.139 391.088 579.732 391.598 Q577.325 392.107 574.848 392.107 Q568.644 392.107 565.01 388.496 Q561.399 384.885 561.399 378.727 Q561.399 372.362 564.825 368.635 Q568.274 364.885 574.107 364.885 Q579.339 364.885 582.371 368.265 Q585.426 371.621 585.426 377.408 M581.167 376.158 Q581.121 372.663 579.2 370.579 Q577.301 368.496 574.153 368.496 Q570.589 368.496 568.436 370.51 Q566.306 372.524 565.982 376.181 L581.167 376.158 Z" fill="#000000" fill-rule="nonzero" fill-opacity="1"></path><path clip-path="url(#clip190)" d="M607.44 369.491 Q606.723 369.075 605.866 368.89 Q605.033 368.681 604.014 368.681 Q600.403 368.681 598.459 371.042 Q596.537 373.38 596.537 377.778 L596.537 391.436 L592.255 391.436 L592.255 365.51 L596.537 365.51 L596.537 369.538 Q597.88 367.177 600.033 366.042 Q602.186 364.885 605.264 364.885 Q605.704 364.885 606.237 364.954 Q606.769 365.001 607.417 365.116 L607.44 369.491 Z" fill="#000000" fill-rule="nonzero" fill-opacity="1"></path><path clip-path="url(#clip190)" d="M623.69 378.403 Q618.528 378.403 616.537 379.584 Q614.547 380.764 614.547 383.612 Q614.547 385.88 616.028 387.223 Q617.533 388.542 620.102 388.542 Q623.644 388.542 625.773 386.042 Q627.926 383.519 627.926 379.352 L627.926 378.403 L623.69 378.403 M632.185 376.644 L632.185 391.436 L627.926 391.436 L627.926 387.501 Q626.468 389.862 624.292 390.996 Q622.116 392.107 618.968 392.107 Q614.986 392.107 612.625 389.885 Q610.287 387.639 610.287 383.889 Q610.287 379.514 613.204 377.292 Q616.144 375.07 621.954 375.07 L627.926 375.07 L627.926 374.653 Q627.926 371.714 625.982 370.116 Q624.06 368.496 620.565 368.496 Q618.343 368.496 616.236 369.028 Q614.13 369.561 612.186 370.626 L612.186 366.69 Q614.524 365.788 616.723 365.348 Q618.922 364.885 621.005 364.885 Q626.63 364.885 629.408 367.802 Q632.185 370.718 632.185 376.644 Z" fill="#000000" fill-rule="nonzero" fill-opacity="1"></path><path clip-path="url(#clip190)" d="M640.959 355.417 L645.218 355.417 L645.218 391.436 L640.959 391.436 L640.959 355.417 Z" fill="#000000" fill-rule="nonzero" fill-opacity="1"></path><path clip-path="url(#clip190)" d="M655.218 385.556 L660.102 385.556 L660.102 391.436 L655.218 391.436 L655.218 385.556 M655.218 366.922 L660.102 366.922 L660.102 372.802 L655.218 372.802 L655.218 366.922 Z" fill="#000000" fill-rule="nonzero" fill-opacity="1"></path><path clip-path="url(#clip190)" d="M711.236 359.538 L711.236 364.468 Q708.875 362.269 706.19 361.181 Q703.528 360.093 700.518 360.093 Q694.593 360.093 691.444 363.728 Q688.296 367.339 688.296 374.19 Q688.296 381.019 691.444 384.653 Q694.593 388.264 700.518 388.264 Q703.528 388.264 706.19 387.176 Q708.875 386.089 711.236 383.889 L711.236 388.774 Q708.782 390.44 706.028 391.274 Q703.296 392.107 700.241 392.107 Q692.393 392.107 687.88 387.315 Q683.366 382.501 683.366 374.19 Q683.366 365.857 687.88 361.066 Q692.393 356.251 700.241 356.251 Q703.342 356.251 706.074 357.084 Q708.829 357.894 711.236 359.538 Z" fill="#000000" fill-rule="nonzero" fill-opacity="1"></path><path clip-path="url(#clip190)" d="M733.898 369.908 L763.574 369.908 L763.574 373.797 L733.898 373.797 L733.898 369.908 M733.898 379.352 L763.574 379.352 L763.574 383.288 L733.898 383.288 L733.898 379.352 Z" fill="#000000" fill-rule="nonzero" fill-opacity="1"></path><path clip-path="url(#clip190)" d="M792.763 387.501 L809.083 387.501 L809.083 391.436 L787.138 391.436 L787.138 387.501 Q789.8 384.746 794.384 380.116 Q798.99 375.464 800.171 374.121 Q802.416 371.598 803.296 369.862 Q804.198 368.103 804.198 366.413 Q804.198 363.658 802.254 361.922 Q800.333 360.186 797.231 360.186 Q795.032 360.186 792.578 360.95 Q790.148 361.714 787.37 363.265 L787.37 358.542 Q790.194 357.408 792.648 356.829 Q795.101 356.251 797.138 356.251 Q802.509 356.251 805.703 358.936 Q808.897 361.621 808.897 366.112 Q808.897 368.241 808.087 370.163 Q807.3 372.061 805.194 374.653 Q804.615 375.325 801.513 378.542 Q798.411 381.737 792.763 387.501 Z" fill="#000000" fill-rule="nonzero" fill-opacity="1"></path><path clip-path="url(#clip190)" d="M818.897 385.556 L823.782 385.556 L823.782 391.436 L818.897 391.436 L818.897 385.556 Z" fill="#000000" fill-rule="nonzero" fill-opacity="1"></path><path clip-path="url(#clip190)" d="M843.967 359.954 Q840.356 359.954 838.527 363.519 Q836.721 367.061 836.721 374.19 Q836.721 381.297 838.527 384.862 Q840.356 388.403 843.967 388.403 Q847.601 388.403 849.407 384.862 Q851.235 381.297 851.235 374.19 Q851.235 367.061 849.407 363.519 Q847.601 359.954 843.967 359.954 M843.967 356.251 Q849.777 356.251 852.832 360.857 Q855.911 365.44 855.911 374.19 Q855.911 382.917 852.832 387.524 Q849.777 392.107 843.967 392.107 Q838.157 392.107 835.078 387.524 Q832.022 382.917 832.022 374.19 Q832.022 365.44 835.078 360.857 Q838.157 356.251 843.967 356.251 Z" fill="#000000" fill-rule="nonzero" fill-opacity="1"></path><polyline clip-path="url(#clip190)" style="stroke:#ff0000; stroke-linecap:round; stroke-linejoin:round; stroke-width:8; stroke-opacity:1; fill:none" points="298.271,425.996 441.607,425.996 "></polyline>
<path clip-path="url(#clip190)" d="M465.497 408.716 L470.172 408.716 L470.172 443.276 L465.497 443.276 L465.497 408.716 Z" fill="#000000" fill-rule="nonzero" fill-opacity="1"></path><path clip-path="url(#clip190)" d="M488.39 443.276 L475.196 408.716 L480.08 408.716 L491.029 437.813 L502.001 408.716 L506.862 408.716 L493.691 443.276 L488.39 443.276 Z" fill="#000000" fill-rule="nonzero" fill-opacity="1"></path><path clip-path="url(#clip190)" d="M516.584 412.558 L516.584 425.544 L522.464 425.544 Q525.728 425.544 527.51 423.855 Q529.292 422.165 529.292 419.04 Q529.292 415.938 527.51 414.248 Q525.728 412.558 522.464 412.558 L516.584 412.558 M511.908 408.716 L522.464 408.716 Q528.274 408.716 531.237 411.355 Q534.223 413.97 534.223 419.04 Q534.223 424.155 531.237 426.771 Q528.274 429.387 522.464 429.387 L516.584 429.387 L516.584 443.276 L511.908 443.276 L511.908 408.716 Z" fill="#000000" fill-rule="nonzero" fill-opacity="1"></path><path clip-path="url(#clip190)" d="M541.399 437.396 L546.283 437.396 L546.283 443.276 L541.399 443.276 L541.399 437.396 M541.399 418.762 L546.283 418.762 L546.283 424.642 L541.399 424.642 L541.399 418.762 Z" fill="#000000" fill-rule="nonzero" fill-opacity="1"></path><path clip-path="url(#clip190)" d="M582.139 445.683 Q580.334 450.313 578.621 451.725 Q576.908 453.137 574.038 453.137 L570.635 453.137 L570.635 449.572 L573.135 449.572 Q574.894 449.572 575.866 448.739 Q576.839 447.905 578.019 444.803 L578.783 442.859 L568.297 417.35 L572.811 417.35 L580.913 437.628 L589.014 417.35 L593.528 417.35 L582.139 445.683 Z" fill="#000000" fill-rule="nonzero" fill-opacity="1"></path><path clip-path="url(#clip190)" d="M609.639 407.304 Q606.537 412.628 605.033 417.836 Q603.528 423.044 603.528 428.392 Q603.528 433.739 605.033 438.993 Q606.561 444.225 609.639 449.526 L605.936 449.526 Q602.463 444.086 600.727 438.831 Q599.014 433.577 599.014 428.392 Q599.014 423.23 600.727 417.998 Q602.44 412.767 605.936 407.304 L609.639 407.304 Z" fill="#000000" fill-rule="nonzero" fill-opacity="1"></path><path clip-path="url(#clip190)" d="M628.505 411.794 Q624.894 411.794 623.065 415.359 Q621.26 418.901 621.26 426.03 Q621.26 433.137 623.065 436.702 Q624.894 440.243 628.505 440.243 Q632.139 440.243 633.945 436.702 Q635.773 433.137 635.773 426.03 Q635.773 418.901 633.945 415.359 Q632.139 411.794 628.505 411.794 M628.505 408.091 Q634.315 408.091 637.371 412.697 Q640.449 417.28 640.449 426.03 Q640.449 434.757 637.371 439.364 Q634.315 443.947 628.505 443.947 Q622.695 443.947 619.616 439.364 Q616.561 434.757 616.561 426.03 Q616.561 417.28 619.616 412.697 Q622.695 408.091 628.505 408.091 Z" fill="#000000" fill-rule="nonzero" fill-opacity="1"></path><path clip-path="url(#clip190)" d="M647.394 407.304 L651.097 407.304 Q654.57 412.767 656.283 417.998 Q658.019 423.23 658.019 428.392 Q658.019 433.577 656.283 438.831 Q654.57 444.086 651.097 449.526 L647.394 449.526 Q650.472 444.225 651.977 438.993 Q653.505 433.739 653.505 428.392 Q653.505 423.044 651.977 417.836 Q650.472 412.628 647.394 407.304 Z" fill="#000000" fill-rule="nonzero" fill-opacity="1"></path><path clip-path="url(#clip190)" d="M682.185 421.748 L711.861 421.748 L711.861 425.637 L682.185 425.637 L682.185 421.748 M682.185 431.192 L711.861 431.192 L711.861 435.128 L682.185 435.128 L682.185 431.192 Z" fill="#000000" fill-rule="nonzero" fill-opacity="1"></path><path clip-path="url(#clip190)" d="M737.833 439.341 L745.472 439.341 L745.472 412.975 L737.162 414.642 L737.162 410.382 L745.426 408.716 L750.101 408.716 L750.101 439.341 L757.74 439.341 L757.74 443.276 L737.833 443.276 L737.833 439.341 Z" fill="#000000" fill-rule="nonzero" fill-opacity="1"></path></svg>